<svg width="82" height="13" viewBox="0 0 82 13" fill="none" xmlns="http://www.w3.org/2000/svg">
<path d="M3.9144 6.57348H1.58005V5.63134H3.9144C4.36647 5.63134 4.73253 5.55933 5.01257 5.41531C5.29261 5.27129 5.49664 5.07126 5.62466 4.81522C5.75668 4.55918 5.82269 4.26714 5.82269 3.93909C5.82269 3.63904 5.75668 3.357 5.62466 3.09296C5.49664 2.82892 5.29261 2.61689 5.01257 2.45686C4.73253 2.29284 4.36647 2.21082 3.9144 2.21082H1.85009V10H0.691918V1.26268H3.9144C4.5745 1.26268 5.13259 1.3767 5.58866 1.60473C6.04473 1.83277 6.39078 2.14882 6.62681 2.55288C6.86285 2.95294 6.98087 3.41101 6.98087 3.92708C6.98087 4.48717 6.86285 4.96524 6.62681 5.3613C6.39078 5.75736 6.04473 6.05941 5.58866 6.26744C5.13259 6.47147 4.5745 6.57348 3.9144 6.57348ZM10.8875 10.12C10.4354 10.12 10.0253 10.044 9.65727 9.89198C9.29322 9.73596 8.97917 9.51793 8.71513 9.23789C8.45509 8.95784 8.25506 8.62579 8.11504 8.24173C7.97502 7.85768 7.90501 7.43761 7.90501 6.98154V6.72951C7.90501 6.20143 7.98302 5.73136 8.13904 5.31929C8.29506 4.90323 8.5071 4.55118 8.77514 4.26313C9.04318 3.97509 9.34722 3.75706 9.68727 3.60904C10.0273 3.46101 10.3794 3.387 10.7434 3.387C11.2075 3.387 11.6076 3.46701 11.9436 3.62704C12.2837 3.78706 12.5617 4.0111 12.7777 4.29914C12.9938 4.58318 13.1538 4.91923 13.2578 5.30729C13.3618 5.69135 13.4138 6.11141 13.4138 6.56748V7.06556H8.56511V6.15942H12.3037V6.07541C12.2877 5.78736 12.2277 5.50732 12.1236 5.23528C12.0236 4.96324 11.8636 4.73921 11.6436 4.56318C11.4235 4.38715 11.1235 4.29914 10.7434 4.29914C10.4914 4.29914 10.2594 4.35315 10.0473 4.46116C9.8353 4.56518 9.65327 4.7212 9.50125 4.92924C9.34922 5.13727 9.23121 5.3913 9.14719 5.69135C9.06318 5.9914 9.02117 6.33745 9.02117 6.72951V6.98154C9.02117 7.28959 9.06318 7.57963 9.14719 7.85168C9.23521 8.11972 9.36123 8.35575 9.52525 8.55978C9.69328 8.76381 9.89531 8.92384 10.1313 9.03986C10.3714 9.15587 10.6434 9.21388 10.9475 9.21388C11.3395 9.21388 11.6716 9.13387 11.9436 8.97385C12.2157 8.81382 12.4537 8.59979 12.6577 8.33175L13.3298 8.86583C13.1898 9.07786 13.0118 9.27989 12.7957 9.47192C12.5797 9.66395 12.3137 9.81997 11.9976 9.93999C11.6856 10.06 11.3155 10.12 10.8875 10.12ZM17.4284 3.50702V4.35915H13.9179V3.50702H17.4284ZM15.1061 1.92878H16.2163V8.39176C16.2163 8.61179 16.2503 8.77782 16.3183 8.88983C16.3863 9.00185 16.4743 9.07586 16.5823 9.11187C16.6903 9.14787 16.8063 9.16587 16.9304 9.16587C17.0224 9.16587 17.1184 9.15787 17.2184 9.14187C17.3224 9.12187 17.4004 9.10587 17.4524 9.09386L17.4584 10C17.3704 10.028 17.2544 10.054 17.1104 10.078C16.9704 10.106 16.8003 10.12 16.6003 10.12C16.3283 10.12 16.0782 10.066 15.8502 9.95799C15.6222 9.84998 15.4401 9.66995 15.3041 9.41791C15.1721 9.16187 15.1061 8.81782 15.1061 8.38576V1.92878ZM23.5554 7.79167C23.5554 7.58764 23.5234 7.40761 23.4594 7.25159C23.3993 7.09156 23.2913 6.94754 23.1353 6.81952C22.9833 6.6915 22.7712 6.56948 22.4992 6.45346C22.2312 6.33745 21.8911 6.21943 21.4791 6.09941C21.047 5.97139 20.6569 5.82937 20.3089 5.67335C19.9608 5.51332 19.6628 5.3313 19.4147 5.12726C19.1667 4.92323 18.9767 4.6892 18.8447 4.42516C18.7126 4.16112 18.6466 3.85907 18.6466 3.51902C18.6466 3.17897 18.7166 2.86492 18.8567 2.57688C18.9967 2.28884 19.1967 2.0388 19.4567 1.82677C19.7208 1.61073 20.0348 1.44271 20.3989 1.32269C20.7629 1.20267 21.169 1.14266 21.6171 1.14266C22.2732 1.14266 22.8293 1.26868 23.2853 1.52072C23.7454 1.76876 24.0954 2.09481 24.3355 2.49887C24.5755 2.89893 24.6955 3.32699 24.6955 3.78306H23.5434C23.5434 3.45501 23.4734 3.16497 23.3333 2.91293C23.1933 2.65689 22.9813 2.45686 22.6972 2.31284C22.4132 2.16482 22.0531 2.09081 21.6171 2.09081C21.205 2.09081 20.865 2.15282 20.5969 2.27683C20.3289 2.40085 20.1289 2.56888 19.9968 2.78091C19.8688 2.99294 19.8048 3.23498 19.8048 3.50702C19.8048 3.69105 19.8428 3.85907 19.9188 4.0111C19.9988 4.15912 20.1208 4.29714 20.2849 4.42516C20.4529 4.55318 20.6649 4.6712 20.921 4.77921C21.181 4.88723 21.4911 4.99124 21.8511 5.09126C22.3472 5.23128 22.7752 5.3873 23.1353 5.55933C23.4954 5.73136 23.7914 5.92539 24.0234 6.14142C24.2595 6.35345 24.4335 6.59549 24.5455 6.86753C24.6615 7.13557 24.7195 7.43961 24.7195 7.77967C24.7195 8.13572 24.6475 8.45777 24.5035 8.74581C24.3595 9.03385 24.1535 9.27989 23.8854 9.48392C23.6174 9.68795 23.2953 9.84598 22.9193 9.95799C22.5472 10.066 22.1312 10.12 21.6711 10.12C21.267 10.12 20.869 10.064 20.4769 9.95199C20.0888 9.83998 19.7348 9.67195 19.4147 9.44792C19.0987 9.22388 18.8447 8.94784 18.6526 8.61979C18.4646 8.28774 18.3706 7.90368 18.3706 7.46762H19.5228C19.5228 7.76766 19.5808 8.0257 19.6968 8.24173C19.8128 8.45377 19.9708 8.62979 20.1709 8.76981C20.3749 8.90984 20.6049 9.01385 20.861 9.08186C21.121 9.14587 21.391 9.17788 21.6711 9.17788C22.0751 9.17788 22.4172 9.12187 22.6972 9.00985C22.9773 8.89783 23.1893 8.73781 23.3333 8.52978C23.4814 8.32175 23.5554 8.07571 23.5554 7.79167ZM28.7461 3.50702V4.35915H25.2356V3.50702H28.7461ZM26.4238 1.92878H27.534V8.39176C27.534 8.61179 27.568 8.77782 27.636 8.88983C27.704 9.00185 27.792 9.07586 27.9 9.11187C28.008 9.14787 28.1241 9.16587 28.2481 9.16587C28.3401 9.16587 28.4361 9.15787 28.5361 9.14187C28.6401 9.12187 28.7181 9.10587 28.7702 9.09386L28.7762 10C28.6881 10.028 28.5721 10.054 28.4281 10.078C28.2881 10.106 28.1181 10.12 27.918 10.12C27.646 10.12 27.3959 10.066 27.1679 9.95799C26.9399 9.84998 26.7578 9.66995 26.6218 9.41791C26.4898 9.16187 26.4238 8.81782 26.4238 8.38576V1.92878ZM29.6343 6.82552V6.6875C29.6343 6.21943 29.7023 5.78536 29.8383 5.3853C29.9743 4.98124 30.1704 4.63119 30.4264 4.33515C30.6824 4.0351 30.9925 3.80307 31.3565 3.63904C31.7206 3.47102 32.1287 3.387 32.5807 3.387C33.0368 3.387 33.4469 3.47102 33.8109 3.63904C34.179 3.80307 34.491 4.0351 34.7471 4.33515C35.0071 4.63119 35.2051 4.98124 35.3411 5.3853C35.4772 5.78536 35.5452 6.21943 35.5452 6.6875V6.82552C35.5452 7.29359 35.4772 7.72766 35.3411 8.12772C35.2051 8.52778 35.0071 8.87783 34.7471 9.17788C34.491 9.47392 34.181 9.70596 33.8169 9.87398C33.4569 10.038 33.0488 10.12 32.5927 10.12C32.1367 10.12 31.7266 10.038 31.3625 9.87398C30.9985 9.70596 30.6864 9.47392 30.4264 9.17788C30.1704 8.87783 29.9743 8.52778 29.8383 8.12772C29.7023 7.72766 29.6343 7.29359 29.6343 6.82552ZM30.7444 6.6875V6.82552C30.7444 7.14957 30.7825 7.45562 30.8585 7.74366C30.9345 8.0277 31.0485 8.27974 31.2005 8.49977C31.3565 8.71981 31.5506 8.89383 31.7826 9.02185C32.0146 9.14587 32.2847 9.20788 32.5927 9.20788C32.8968 9.20788 33.1628 9.14587 33.3908 9.02185C33.6229 8.89383 33.8149 8.71981 33.9669 8.49977C34.119 8.27974 34.233 8.0277 34.309 7.74366C34.389 7.45562 34.429 7.14957 34.429 6.82552V6.6875C34.429 6.36745 34.389 6.06541 34.309 5.78136C34.233 5.49332 34.117 5.23928 33.9609 5.01925C33.8089 4.79521 33.6169 4.61919 33.3848 4.49117C33.1568 4.36315 32.8888 4.29914 32.5807 4.29914C32.2767 4.29914 32.0086 4.36315 31.7766 4.49117C31.5486 4.61919 31.3565 4.79521 31.2005 5.01925C31.0485 5.23928 30.9345 5.49332 30.8585 5.78136C30.7825 6.06541 30.7444 6.36745 30.7444 6.6875ZM38.0476 4.52717V10H36.9374V3.50702H38.0175L38.0476 4.52717ZM40.0759 3.47102L40.0699 4.50317C39.9778 4.48317 39.8898 4.47117 39.8058 4.46717C39.7258 4.45916 39.6338 4.45516 39.5298 4.45516C39.2737 4.45516 39.0477 4.49517 38.8517 4.57518C38.6556 4.65519 38.4896 4.76721 38.3536 4.91123C38.2176 5.05525 38.1096 5.22728 38.0296 5.42731C37.9535 5.62334 37.9035 5.83937 37.8795 6.07541L37.5675 6.25544C37.5675 5.86338 37.6055 5.49532 37.6815 5.15127C37.7615 4.80722 37.8835 4.50317 38.0476 4.23913C38.2116 3.97109 38.4196 3.76306 38.6716 3.61504C38.9277 3.46301 39.2317 3.387 39.5838 3.387C39.6638 3.387 39.7558 3.397 39.8598 3.41701C39.9638 3.43301 40.0359 3.45101 40.0759 3.47102ZM43.0343 9.3279L44.8406 3.50702H46.0288L43.4244 11.0022C43.3644 11.1622 43.2843 11.3342 43.1843 11.5182C43.0883 11.7063 42.9643 11.8843 42.8123 12.0523C42.6602 12.2203 42.4762 12.3564 42.2602 12.4604C42.0482 12.5684 41.7941 12.6224 41.4981 12.6224C41.4101 12.6224 41.298 12.6104 41.162 12.5864C41.026 12.5624 40.93 12.5424 40.874 12.5264L40.868 11.6262C40.9 11.6302 40.95 11.6342 41.018 11.6382C41.09 11.6462 41.14 11.6502 41.168 11.6502C41.4201 11.6502 41.6341 11.6162 41.8101 11.5482C41.9861 11.4842 42.1342 11.3742 42.2542 11.2182C42.3782 11.0662 42.4842 10.8561 42.5722 10.5881L43.0343 9.3279ZM41.7081 3.50702L43.3944 8.54778L43.6824 9.71796L42.8843 10.126L40.4959 3.50702H41.7081ZM49.7853 6.82552V6.6875C49.7853 6.21943 49.8533 5.78536 49.9894 5.3853C50.1254 4.98124 50.3214 4.63119 50.5774 4.33515C50.8335 4.0351 51.1435 3.80307 51.5076 3.63904C51.8716 3.47102 52.2797 3.387 52.7318 3.387C53.1878 3.387 53.5979 3.47102 53.962 3.63904C54.33 3.80307 54.6421 4.0351 54.8981 4.33515C55.1581 4.63119 55.3562 4.98124 55.4922 5.3853C55.6282 5.78536 55.6962 6.21943 55.6962 6.6875V6.82552C55.6962 7.29359 55.6282 7.72766 55.4922 8.12772C55.3562 8.52778 55.1581 8.87783 54.8981 9.17788C54.6421 9.47392 54.332 9.70596 53.968 9.87398C53.6079 10.038 53.1998 10.12 52.7438 10.12C52.2877 10.12 51.8776 10.038 51.5136 9.87398C51.1495 9.70596 50.8375 9.47392 50.5774 9.17788C50.3214 8.87783 50.1254 8.52778 49.9894 8.12772C49.8533 7.72766 49.7853 7.29359 49.7853 6.82552ZM50.8955 6.6875V6.82552C50.8955 7.14957 50.9335 7.45562 51.0095 7.74366C51.0855 8.0277 51.1995 8.27974 51.3516 8.49977C51.5076 8.71981 51.7016 8.89383 51.9336 9.02185C52.1657 9.14587 52.4357 9.20788 52.7438 9.20788C53.0478 9.20788 53.3139 9.14587 53.5419 9.02185C53.7739 8.89383 53.966 8.71981 54.118 8.49977C54.27 8.27974 54.384 8.0277 54.46 7.74366C54.54 7.45562 54.58 7.14957 54.58 6.82552V6.6875C54.58 6.36745 54.54 6.06541 54.46 5.78136C54.384 5.49332 54.268 5.23928 54.112 5.01925C53.96 4.79521 53.7679 4.61919 53.5359 4.49117C53.3079 4.36315 53.0398 4.29914 52.7318 4.29914C52.4277 4.29914 52.1597 4.36315 51.9276 4.49117C51.6996 4.61919 51.5076 4.79521 51.3516 5.01925C51.1995 5.23928 51.0855 5.49332 51.0095 5.78136C50.9335 6.06541 50.8955 6.36745 50.8955 6.6875ZM58.1986 4.89323V10H57.0884V3.50702H58.1386L58.1986 4.89323ZM57.9345 6.50747L57.4725 6.48947C57.4765 6.0454 57.5425 5.63534 57.6705 5.25928C57.7985 4.87923 57.9786 4.54918 58.2106 4.26914C58.4426 3.98909 58.7187 3.77306 59.0387 3.62104C59.3628 3.46501 59.7208 3.387 60.1129 3.387C60.4329 3.387 60.721 3.43101 60.977 3.51902C61.233 3.60303 61.4511 3.73906 61.6311 3.92708C61.8151 4.11511 61.9552 4.35915 62.0512 4.65919C62.1472 4.95524 62.1952 5.31729 62.1952 5.74536V10H61.079V5.73336C61.079 5.39331 61.029 5.12126 60.929 4.91723C60.829 4.7092 60.683 4.55918 60.4909 4.46717C60.2989 4.37115 60.0629 4.32314 59.7828 4.32314C59.5068 4.32314 59.2547 4.38115 59.0267 4.49717C58.8027 4.61319 58.6087 4.77321 58.4446 4.97724C58.2846 5.18127 58.1586 5.41531 58.0666 5.67935C57.9786 5.93939 57.9345 6.21543 57.9345 6.50747ZM65.0876 0.782609V10H63.9715V0.782609H65.0876ZM68.0761 3.50702V10H66.9599V3.50702H68.0761ZM66.8759 1.78476C66.8759 1.60473 66.9299 1.45271 67.0379 1.32869C67.1499 1.20467 67.314 1.14266 67.53 1.14266C67.742 1.14266 67.9041 1.20467 68.0161 1.32869C68.1321 1.45271 68.1901 1.60473 68.1901 1.78476C68.1901 1.95679 68.1321 2.10481 68.0161 2.22883C67.9041 2.34885 67.742 2.40885 67.53 2.40885C67.314 2.40885 67.1499 2.34885 67.0379 2.22883C66.9299 2.10481 66.8759 1.95679 66.8759 1.78476ZM70.9685 4.89323V10H69.8583V3.50702H70.9085L70.9685 4.89323ZM70.7045 6.50747L70.2424 6.48947C70.2464 6.0454 70.3124 5.63534 70.4404 5.25928C70.5685 4.87923 70.7485 4.54918 70.9805 4.26914C71.2126 3.98909 71.4886 3.77306 71.8086 3.62104C72.1327 3.46501 72.4907 3.387 72.8828 3.387C73.2029 3.387 73.4909 3.43101 73.7469 3.51902C74.003 3.60303 74.221 3.73906 74.401 3.92708C74.5851 4.11511 74.7251 4.35915 74.8211 4.65919C74.9171 4.95524 74.9651 5.31729 74.9651 5.74536V10H73.849V5.73336C73.849 5.39331 73.7989 5.12126 73.6989 4.91723C73.5989 4.7092 73.4529 4.55918 73.2609 4.46717C73.0688 4.37115 72.8328 4.32314 72.5528 4.32314C72.2767 4.32314 72.0247 4.38115 71.7966 4.49717C71.5726 4.61319 71.3786 4.77321 71.2146 4.97724C71.0545 5.18127 70.9285 5.41531 70.8365 5.67935C70.7485 5.93939 70.7045 6.21543 70.7045 6.50747ZM79.3458 10.12C78.8937 10.12 78.4837 10.044 78.1156 9.89198C77.7515 9.73596 77.4375 9.51793 77.1735 9.23789C76.9134 8.95784 76.7134 8.62579 76.5734 8.24173C76.4333 7.85768 76.3633 7.43761 76.3633 6.98154V6.72951C76.3633 6.20143 76.4413 5.73136 76.5974 5.31929C76.7534 4.90323 76.9654 4.55118 77.2335 4.26313C77.5015 3.97509 77.8056 3.75706 78.1456 3.60904C78.4857 3.46101 78.8377 3.387 79.2018 3.387C79.6658 3.387 80.0659 3.46701 80.4019 3.62704C80.742 3.78706 81.02 4.0111 81.2361 4.29914C81.4521 4.58318 81.6121 4.91923 81.7161 5.30729C81.8202 5.69135 81.8722 6.11141 81.8722 6.56748V7.06556H77.0234V6.15942H80.762V6.07541C80.746 5.78736 80.686 5.50732 80.582 5.23528C80.482 4.96324 80.3219 4.73921 80.1019 4.56318C79.8819 4.38715 79.5818 4.29914 79.2018 4.29914C78.9497 4.29914 78.7177 4.35315 78.5057 4.46116C78.2936 4.56518 78.1116 4.7212 77.9596 4.92924C77.8076 5.13727 77.6895 5.3913 77.6055 5.69135C77.5215 5.9914 77.4795 6.33745 77.4795 6.72951V6.98154C77.4795 7.28959 77.5215 7.57963 77.6055 7.85168C77.6935 8.11972 77.8196 8.35575 77.9836 8.55978C78.1516 8.76381 78.3536 8.92384 78.5897 9.03986C78.8297 9.15587 79.1017 9.21388 79.4058 9.21388C79.7979 9.21388 80.1299 9.13387 80.4019 8.97385C80.674 8.81382 80.912 8.59979 81.1161 8.33175L81.7882 8.86583C81.6481 9.07786 81.4701 9.27989 81.2541 9.47192C81.038 9.66395 80.772 9.81997 80.456 9.93999C80.1439 10.06 79.7739 10.12 79.3458 10.12Z" fill="white"/>
<path d="M1.58005 6.57348H0.811936V7.3416H1.58005V6.57348ZM1.58005 5.63134V4.86323H0.811936V5.63134H1.58005ZM5.62466 4.81522L4.94191 4.46317L4.93764 4.47171L5.62466 4.81522ZM5.62466 3.09296L4.93345 3.42809L4.93764 3.43647L5.62466 3.09296ZM5.01257 2.45686L4.62434 3.11969L4.63148 3.12377L5.01257 2.45686ZM1.85009 2.21082V1.44271H1.08198V2.21082H1.85009ZM1.85009 10V10.7681H2.61821V10H1.85009ZM0.691918 10H-0.076198V10.7681H0.691918V10ZM0.691918 1.26268V0.494566H-0.076198V1.26268H0.691918ZM6.62681 2.55288L5.96356 2.94032L5.96526 2.94319L6.62681 2.55288ZM5.58866 6.26744L5.90234 6.96861L5.90743 6.96628L5.58866 6.26744ZM3.9144 5.80537H1.58005V7.3416H3.9144V5.80537ZM2.34817 6.57348V5.63134H0.811936V6.57348H2.34817ZM1.58005 6.39946H3.9144V4.86323H1.58005V6.39946ZM3.9144 6.39946C4.43902 6.39946 4.93825 6.31727 5.36387 6.09838L4.66127 4.73223C4.52681 4.80139 4.29392 4.86323 3.9144 4.86323V6.39946ZM5.36387 6.09838C5.77376 5.88758 6.10335 5.57541 6.31169 5.15873L4.93764 4.47171C4.88994 4.5671 4.81146 4.65499 4.66127 4.73223L5.36387 6.09838ZM6.30737 5.16724C6.50287 4.78808 6.59081 4.37248 6.59081 3.93909H5.05458C5.05458 4.16179 5.01049 4.33028 4.94196 4.4632L6.30737 5.16724ZM6.59081 3.93909C6.59081 3.52182 6.49793 3.12194 6.31169 2.74945L4.93764 3.43647C5.01543 3.59205 5.05458 3.75626 5.05458 3.93909H6.59081ZM6.31582 2.75785C6.11358 2.34072 5.79421 2.01884 5.39366 1.78995L4.63148 3.12377C4.79101 3.21494 4.87971 3.31712 4.9335 3.42807L6.31582 2.75785ZM5.40078 1.79407C4.96558 1.53916 4.45183 1.44271 3.9144 1.44271V2.97894C4.28112 2.97894 4.49948 3.04651 4.62436 3.11966L5.40078 1.79407ZM3.9144 1.44271H1.85009V2.97894H3.9144V1.44271ZM1.08198 2.21082V10H2.61821V2.21082H1.08198ZM1.85009 9.23188H0.691918V10.7681H1.85009V9.23188ZM1.46003 10V1.26268H-0.076198V10H1.46003ZM0.691918 2.0308H3.9144V0.494566H0.691918V2.0308ZM3.9144 2.0308C4.48918 2.0308 4.92241 2.13039 5.24514 2.29176L5.93217 0.91771C5.34276 0.623006 4.65983 0.494566 3.9144 0.494566V2.0308ZM5.24514 2.29176C5.58027 2.45932 5.8095 2.67657 5.96357 2.94032L7.29006 2.16544C6.97206 1.62107 6.50918 1.20621 5.93217 0.91771L5.24514 2.29176ZM5.96526 2.94319C6.12399 3.21223 6.21275 3.53265 6.21275 3.92708H7.74898C7.74898 3.28936 7.60171 2.69365 7.28837 2.16256L5.96526 2.94319ZM6.21275 3.92708C6.21275 4.37846 6.11833 4.71411 5.96699 4.96807L7.28664 5.75453C7.60736 5.21637 7.74898 4.59588 7.74898 3.92708H6.21275ZM5.96699 4.96807C5.81793 5.21817 5.59684 5.41945 5.26988 5.56859L5.90743 6.96628C6.49261 6.69936 6.96362 6.29655 7.28664 5.75453L5.96699 4.96807ZM5.27498 5.56629C4.94387 5.71442 4.49946 5.80537 3.9144 5.80537V7.3416C4.64955 7.3416 5.32131 7.22852 5.90233 6.96859L5.27498 5.56629ZM9.65727 9.89198L9.35467 10.5981L9.36403 10.6019L9.65727 9.89198ZM8.71513 9.23789L8.15224 9.76057L8.15626 9.76482L8.71513 9.23789ZM8.11504 8.24173L7.39339 8.50484L8.11504 8.24173ZM8.13904 5.31929L8.85739 5.59129L8.85825 5.589L8.13904 5.31929ZM8.77514 4.26313L8.21282 3.73987L8.77514 4.26313ZM11.9436 3.62704L11.6134 4.32055L11.6166 4.32204L11.9436 3.62704ZM12.7777 4.29914L12.1632 4.76002L12.1664 4.76413L12.7777 4.29914ZM13.2578 5.30729L12.5159 5.50616L12.5164 5.50809L13.2578 5.30729ZM13.4138 7.06556V7.83367H14.182V7.06556H13.4138ZM8.56511 7.06556H7.79699V7.83367H8.56511V7.06556ZM8.56511 6.15942V5.3913H7.79699V6.15942H8.56511ZM12.3037 6.15942V6.92754H13.0718V6.15942H12.3037ZM12.3037 6.07541H13.0718V6.05409L13.0706 6.0328L12.3037 6.07541ZM12.1236 5.23528L11.4026 5.50035L11.4062 5.5096L12.1236 5.23528ZM10.0473 4.46116L10.3857 5.15085L10.396 5.14559L10.0473 4.46116ZM9.14719 7.85168L8.41316 8.07836L8.41741 8.09131L9.14719 7.85168ZM9.52525 8.55978L8.92656 9.04108L8.93232 9.04808L9.52525 8.55978ZM10.1313 9.03986L9.7925 9.72921L9.79708 9.73143L10.1313 9.03986ZM12.6577 8.33175L13.1356 7.73038L12.5216 7.24245L12.0465 7.86651L12.6577 8.33175ZM13.3298 8.86583L13.9708 9.28911L14.3584 8.7021L13.8077 8.26446L13.3298 8.86583ZM11.9976 9.93999L11.7249 9.2219L11.7219 9.22307L11.9976 9.93999ZM10.8875 9.3519C10.5225 9.3519 10.2138 9.29081 9.95051 9.18204L9.36403 10.6019C9.83682 10.7972 10.3483 10.8881 10.8875 10.8881V9.3519ZM9.95985 9.18597C9.68971 9.0702 9.46367 8.91211 9.274 8.71095L8.15626 9.76482C8.49467 10.1237 8.89672 10.4017 9.35469 10.598L9.95985 9.18597ZM9.278 8.71522C9.09242 8.51537 8.9441 8.27324 8.83669 7.97863L7.39339 8.50484C7.56602 8.97835 7.81776 9.40032 8.15226 9.76055L9.278 8.71522ZM8.83669 7.97863C8.73075 7.68806 8.67312 7.35819 8.67312 6.98154H7.13689C7.13689 7.51704 7.21928 8.02729 7.39339 8.50484L8.83669 7.97863ZM8.67312 6.98154V6.72951H7.13689V6.98154H8.67312ZM8.67312 6.72951C8.67312 6.27638 8.74009 5.90108 8.85739 5.59129L7.4207 5.0473C7.22595 5.56163 7.13689 6.12647 7.13689 6.72951H8.67312ZM8.85825 5.589C8.98358 5.25479 9.14606 4.99208 9.33745 4.7864L8.21282 3.73987C7.86814 4.11028 7.60655 4.55167 7.41983 5.04959L8.85825 5.589ZM9.33745 4.7864C9.53804 4.57084 9.75639 4.41668 9.99385 4.31332L9.3807 2.90475C8.93805 3.09743 8.54832 3.37934 8.21282 3.73987L9.33745 4.7864ZM9.99385 4.31332C10.239 4.20659 10.4869 4.15512 10.7434 4.15512V2.61889C10.2719 2.61889 9.81562 2.71544 9.3807 2.90475L9.99385 4.31332ZM10.7434 4.15512C11.1207 4.15512 11.4027 4.22022 11.6134 4.32054L12.2739 2.93354C11.8124 2.7138 11.2943 2.61889 10.7434 2.61889V4.15512ZM11.6166 4.32204C11.8483 4.43108 12.0258 4.57676 12.1632 4.76001L13.3922 3.83827C13.0976 3.44543 12.7191 3.14304 12.2707 2.93203L11.6166 4.32204ZM12.1664 4.76413C12.3149 4.9594 12.4345 5.20236 12.5159 5.50616L13.9997 5.10843C13.8731 4.6361 13.6727 4.20696 13.3891 3.83415L12.1664 4.76413ZM12.5164 5.50809C12.6003 5.81796 12.6457 6.16955 12.6457 6.56748H14.182C14.182 6.05328 14.1233 5.56474 13.9992 5.10649L12.5164 5.50809ZM12.6457 6.56748V7.06556H14.182V6.56748H12.6457ZM13.4138 6.29744H8.56511V7.83367H13.4138V6.29744ZM9.33322 7.06556V6.15942H7.79699V7.06556H9.33322ZM8.56511 6.92754H12.3037V5.3913H8.56511V6.92754ZM13.0718 6.15942V6.07541H11.5356V6.15942H13.0718ZM13.0706 6.0328C13.0502 5.66466 12.9732 5.30649 12.8411 4.96096L11.4062 5.5096C11.4821 5.70815 11.5252 5.91007 11.5367 6.11802L13.0706 6.0328ZM12.8446 4.97023C12.6977 4.57066 12.4561 4.22951 12.1234 3.96338L11.1637 5.16298C11.2711 5.2489 11.3496 5.35582 11.4027 5.50033L12.8446 4.97023ZM12.1234 3.96338C11.7264 3.64575 11.2373 3.53102 10.7434 3.53102V5.06726C11.0097 5.06726 11.1207 5.12856 11.1637 5.16298L12.1234 3.96338ZM10.7434 3.53102C10.3776 3.53102 10.0251 3.61046 9.69866 3.77674L10.396 5.14559C10.4937 5.09583 10.6052 5.06726 10.7434 5.06726V3.53102ZM9.70903 3.77156C9.37534 3.93526 9.0997 4.17687 8.88108 4.47603L10.1214 5.38244C10.2068 5.26554 10.2953 5.1951 10.3856 5.15077L9.70903 3.77156ZM8.88108 4.47603C8.66479 4.77201 8.51129 5.11367 8.40753 5.48424L9.88686 5.89846C9.95113 5.66894 10.0337 5.50253 10.1214 5.38244L8.88108 4.47603ZM8.40753 5.48424C8.30051 5.86645 8.25306 6.2846 8.25306 6.72951H9.78929C9.78929 6.39029 9.82585 6.11634 9.88686 5.89846L8.40753 5.48424ZM8.25306 6.72951V6.98154H9.78929V6.72951H8.25306ZM8.25306 6.98154C8.25306 7.36015 8.30481 7.72711 8.41328 8.07833L9.88111 7.62503C9.82155 7.43216 9.78929 7.21903 9.78929 6.98154H8.25306ZM8.41741 8.09131C8.532 8.44027 8.70034 8.7596 8.9266 9.04105L10.1239 8.07851C10.0221 7.9519 9.93841 7.79916 9.87697 7.61205L8.41741 8.09131ZM8.93232 9.04808C9.16943 9.336 9.45794 9.56475 9.79251 9.7292L10.4702 8.35051C10.3327 8.28293 10.2171 8.19163 10.1182 8.07149L8.93232 9.04808ZM9.79708 9.73143C10.1551 9.90447 10.544 9.982 10.9475 9.982V8.44577C10.7429 8.44577 10.5877 8.40728 10.4656 8.34828L9.79708 9.73143ZM10.9475 9.982C11.4436 9.982 11.9175 9.88034 12.3331 9.63591L11.5542 8.31178C11.4256 8.3874 11.2355 8.44577 10.9475 8.44577V9.982ZM12.3331 9.63591C12.6968 9.42197 13.0086 9.13901 13.2689 8.79698L12.0465 7.86651C11.8988 8.06057 11.7345 8.20568 11.5542 8.31178L12.3331 9.63591ZM12.1799 8.93311L12.852 9.46719L13.8077 8.26446L13.1356 7.73038L12.1799 8.93311ZM12.6889 8.44255C12.5903 8.59181 12.4583 8.7442 12.2854 8.89782L13.3061 10.046C13.5653 9.81558 13.7893 9.56391 13.9708 9.28911L12.6889 8.44255ZM12.2854 8.89782C12.1499 9.01826 11.9682 9.12952 11.7249 9.22191L12.2703 10.6581C12.6591 10.5104 13.0095 10.3096 13.3061 10.046L12.2854 8.89782ZM11.7219 9.22307C11.5187 9.30124 11.2465 9.3519 10.8875 9.3519V10.8881C11.3846 10.8881 11.8525 10.8188 12.2734 10.6569L11.7219 9.22307ZM17.4284 3.50702H18.1966V2.7389H17.4284V3.50702ZM17.4284 4.35915V5.12726H18.1966V4.35915H17.4284ZM13.9179 4.35915H13.1498V5.12726H13.9179V4.35915ZM13.9179 3.50702V2.7389H13.1498V3.50702H13.9179ZM15.1061 1.92878V1.16067H14.338V1.92878H15.1061ZM16.2163 1.92878H16.9844V1.16067H16.2163V1.92878ZM17.2184 9.14187L17.3398 9.90034L17.3516 9.89844L17.3635 9.89617L17.2184 9.14187ZM17.4524 9.09386L18.2205 9.08878L18.2142 8.12977L17.2797 8.34542L17.4524 9.09386ZM17.4584 10L17.6913 10.732L18.2303 10.5605L18.2265 9.99491L17.4584 10ZM17.1104 10.078L16.9841 9.32035L16.9719 9.32238L16.9598 9.32481L17.1104 10.078ZM15.3041 9.41791L14.6214 9.76993L14.6247 9.77636L14.6282 9.78272L15.3041 9.41791ZM16.6603 3.50702V4.35915H18.1966V3.50702H16.6603ZM17.4284 3.59103H13.9179V5.12726H17.4284V3.59103ZM14.686 4.35915V3.50702H13.1498V4.35915H14.686ZM13.9179 4.27514H17.4284V2.7389H13.9179V4.27514ZM15.1061 2.6969H16.2163V1.16067H15.1061V2.6969ZM15.4481 1.92878V8.39176H16.9844V1.92878H15.4481ZM15.4481 8.39176C15.4481 8.66761 15.4866 9.00011 15.6617 9.28847L16.9749 8.4912C16.9978 8.52903 16.9985 8.54781 16.9943 8.52718C16.9902 8.50729 16.9844 8.46443 16.9844 8.39176H15.4481ZM15.6617 9.28847C15.8091 9.53119 16.0331 9.73844 16.3394 9.84056L16.8252 8.38317C16.8641 8.39613 16.9002 8.41673 16.9297 8.44147C16.9579 8.46522 16.9714 8.48554 16.9749 8.4912L15.6617 9.28847ZM16.3394 9.84056C16.5324 9.9049 16.7311 9.93399 16.9304 9.93399V8.39776C16.8816 8.39776 16.8482 8.39084 16.8252 8.38317L16.3394 9.84056ZM16.9304 9.93399C17.0668 9.93399 17.2036 9.92213 17.3398 9.90034L17.0971 8.3834C17.0332 8.39362 16.9779 8.39776 16.9304 8.39776V9.93399ZM17.3635 9.89617C17.4696 9.87575 17.5589 9.8576 17.6252 9.84231L17.2797 8.34542C17.242 8.35413 17.1752 8.36798 17.0734 8.38758L17.3635 9.89617ZM16.6843 9.09895L16.6903 10.0051L18.2265 9.99491L18.2205 9.08878L16.6843 9.09895ZM17.2256 9.26804C17.1864 9.2805 17.1102 9.29934 16.9841 9.32035L17.2367 10.8357C17.3987 10.8087 17.5545 10.7755 17.6913 10.732L17.2256 9.26804ZM16.9598 9.32481C16.8846 9.33984 16.7682 9.3519 16.6003 9.3519V10.8881C16.8325 10.8881 17.0561 10.8722 17.261 10.8312L16.9598 9.32481ZM16.6003 9.3519C16.433 9.3519 16.2964 9.31942 16.179 9.26382L15.5214 10.6522C15.8601 10.8126 16.2236 10.8881 16.6003 10.8881V9.3519ZM16.179 9.26382C16.1184 9.23509 16.0494 9.18148 15.9801 9.05311L14.6282 9.78272C14.8309 10.1584 15.126 10.4649 15.5214 10.6522L16.179 9.26382ZM15.9868 9.06589C15.932 8.95956 15.8742 8.75152 15.8742 8.38576H14.338C14.338 8.88412 14.4122 9.36419 14.6214 9.76993L15.9868 9.06589ZM15.8742 8.38576V1.92878H14.338V8.38576H15.8742ZM23.4594 7.25159L22.7401 7.52129L22.7443 7.53227L22.7487 7.54313L23.4594 7.25159ZM23.1353 6.81952L22.6405 7.40711L22.6481 7.41333L23.1353 6.81952ZM22.4992 6.45346L22.1941 7.15839L22.1979 7.16001L22.4992 6.45346ZM21.4791 6.09941L21.2608 6.83589L21.2643 6.83688L21.4791 6.09941ZM20.3089 5.67335L19.988 6.37127L19.9947 6.37426L20.3089 5.67335ZM19.4567 1.82677L19.9422 2.42207L19.9431 2.42126L19.4567 1.82677ZM23.2853 1.52072L22.9138 2.19304L22.9208 2.19684L23.2853 1.52072ZM24.3355 2.49887L23.6751 2.89118L23.6768 2.89406L24.3355 2.49887ZM24.6955 3.78306V4.55118H25.4637V3.78306H24.6955ZM23.5434 3.78306H22.7752V4.55118H23.5434V3.78306ZM23.3333 2.91293L22.6594 3.28149L22.6619 3.28596L23.3333 2.91293ZM22.6972 2.31284L22.3422 2.99405L22.3499 2.99792L22.6972 2.31284ZM19.9968 2.78091L19.3447 2.37488L19.3393 2.3839L19.9968 2.78091ZM19.9188 4.0111L19.2318 4.35461L19.2373 4.36557L19.2431 4.37635L19.9188 4.0111ZM20.2849 4.42516L19.8122 5.03072L19.8194 5.03614L20.2849 4.42516ZM20.921 4.77921L20.6224 5.48694L20.6263 5.48856L20.921 4.77921ZM21.8511 5.09126L22.0598 4.35202L22.0567 4.35117L21.8511 5.09126ZM24.0234 6.14142L23.4999 6.70369L23.5101 6.71284L24.0234 6.14142ZM24.5455 6.86753L23.8351 7.16003L23.8406 7.17264L24.5455 6.86753ZM23.8854 9.48392L23.4202 8.87273L23.8854 9.48392ZM22.9193 9.95799L23.1334 10.6957L23.1386 10.6941L22.9193 9.95799ZM20.4769 9.95199L20.2639 10.69L20.2659 10.6906L20.4769 9.95199ZM19.4147 9.44792L18.9705 10.0746L18.9743 10.0772L19.4147 9.44792ZM18.6526 8.61979L17.9842 8.99832L17.9897 9.00783L18.6526 8.61979ZM18.3706 7.46762V6.6995H17.6025V7.46762H18.3706ZM19.5228 7.46762H20.2909V6.6995H19.5228V7.46762ZM19.6968 8.24173L19.0201 8.60516L19.0229 8.61044L19.6968 8.24173ZM20.1709 8.76981L19.7304 9.39911L19.7362 9.40314L20.1709 8.76981ZM20.861 9.08186L20.6637 9.82436L20.6774 9.82771L20.861 9.08186ZM23.3333 8.52978L22.7074 8.08442L22.7018 8.09256L23.3333 8.52978ZM24.3235 7.79167C24.3235 7.50811 24.279 7.2258 24.17 6.96004L22.7487 7.54313C22.7677 7.58942 22.7873 7.66717 22.7873 7.79167H24.3235ZM24.1786 6.98188C24.0631 6.67409 23.864 6.42386 23.6225 6.22571L22.6481 7.41333C22.7186 7.47121 22.7355 7.50903 22.7401 7.52129L24.1786 6.98188ZM23.6301 6.23198C23.3989 6.03729 23.1119 5.87972 22.8005 5.74692L22.1979 7.16001C22.4306 7.25924 22.5677 7.34571 22.6405 7.40706L23.6301 6.23198ZM22.8043 5.74855C22.4967 5.61542 22.1238 5.48718 21.6939 5.36194L21.2643 6.83688C21.6584 6.95168 21.9656 7.05948 22.1941 7.15838L22.8043 5.74855ZM21.6973 5.36294C21.2923 5.24294 20.935 5.11225 20.6231 4.97243L19.9947 6.37426C20.3789 6.54649 20.8017 6.69984 21.2608 6.83588L21.6973 5.36294ZM20.6297 4.97546C20.3305 4.83788 20.0911 4.68903 19.9027 4.53406L18.9268 5.72047C19.2345 5.97357 19.5911 6.18876 19.988 6.37123L20.6297 4.97546ZM19.9027 4.53406C19.7304 4.39231 19.6115 4.24122 19.5317 4.08165L18.1576 4.76867C18.3419 5.13718 18.603 5.45415 18.9268 5.72047L19.9027 4.53406ZM19.5317 4.08165C19.4606 3.93939 19.4147 3.75798 19.4147 3.51902H17.8785C17.8785 3.96017 17.9647 4.38284 18.1576 4.76867L19.5317 4.08165ZM19.4147 3.51902C19.4147 3.28796 19.4614 3.08968 19.5475 2.91269L18.1658 2.24107C17.9718 2.64017 17.8785 3.06998 17.8785 3.51902H19.4147ZM19.5475 2.91269C19.6364 2.72983 19.7644 2.567 19.9422 2.42207L18.9713 1.23146C18.629 1.5106 18.357 1.84784 18.1658 2.24107L19.5475 2.91269ZM19.9431 2.42126C20.1257 2.27186 20.3539 2.14631 20.6394 2.05219L20.1584 0.593195C19.7158 0.73911 19.3158 0.949606 18.9703 1.23228L19.9431 2.42126ZM20.6394 2.05219C20.914 1.96165 21.2372 1.91078 21.6171 1.91078V0.374548C21.1008 0.374548 20.6119 0.443691 20.1584 0.593195L20.6394 2.05219ZM21.6171 1.91078C22.1763 1.91078 22.5973 2.01809 22.9138 2.19301L23.6569 0.848434C23.0612 0.519278 22.3701 0.374548 21.6171 0.374548V1.91078ZM22.9208 2.19684C23.2725 2.38643 23.5139 2.61985 23.6751 2.89117L24.9959 2.10656C24.677 1.56977 24.2183 1.15109 23.6498 0.844606L22.9208 2.19684ZM23.6768 2.89406C23.847 3.17763 23.9274 3.46953 23.9274 3.78306H25.4637C25.4637 3.18445 25.3041 2.62023 24.9941 2.10368L23.6768 2.89406ZM24.6955 3.01495H23.5434V4.55118H24.6955V3.01495ZM24.3115 3.78306C24.3115 3.34271 24.2165 2.921 24.0048 2.5399L22.6619 3.28596C22.7302 3.40894 22.7752 3.56731 22.7752 3.78306H24.3115ZM24.0073 2.54438C23.786 2.13984 23.4537 1.8352 23.0446 1.62776L22.3499 2.99792C22.5088 3.07852 22.6006 3.17395 22.6594 3.28148L24.0073 2.54438ZM23.0522 1.63167C22.6262 1.40967 22.1342 1.32269 21.6171 1.32269V2.85892C21.9721 2.85892 22.2002 2.91997 22.3423 2.99401L23.0522 1.63167ZM21.6171 1.32269C21.1348 1.32269 20.6752 1.39426 20.2744 1.57972L20.9195 2.97395C21.0547 2.91137 21.2752 2.85892 21.6171 2.85892V1.32269ZM20.2744 1.57972C19.8957 1.75493 19.5694 2.01411 19.3448 2.37492L20.6489 3.18691C20.6883 3.12365 20.7621 3.04678 20.9195 2.97395L20.2744 1.57972ZM19.3393 2.3839C19.1319 2.72732 19.0367 3.10924 19.0367 3.50702H20.5729C20.5729 3.36072 20.6057 3.25856 20.6544 3.17793L19.3393 2.3839ZM19.0367 3.50702C19.0367 3.80023 19.0981 4.08728 19.2318 4.35461L20.6058 3.66758C20.5875 3.63087 20.5729 3.58186 20.5729 3.50702H19.0367ZM19.2431 4.37635C19.3839 4.63691 19.5839 4.85244 19.8123 5.03068L20.7575 3.81964C20.6578 3.74184 20.6137 3.68133 20.5945 3.64584L19.2431 4.37635ZM19.8194 5.03614C20.0519 5.21335 20.3244 5.3612 20.6224 5.48693L21.2195 4.0715C21.0055 3.98119 20.8539 3.89301 20.7504 3.81418L19.8194 5.03614ZM20.6263 5.48856C20.923 5.6118 21.2643 5.72546 21.6455 5.83135L22.0567 4.35117C21.7178 4.25703 21.439 4.16266 21.2156 4.06986L20.6263 5.48856ZM21.6425 5.83049C22.1079 5.96187 22.493 6.10374 22.8042 6.2524L23.4664 4.86626C23.0575 4.67087 22.5865 4.50069 22.0598 4.35203L21.6425 5.83049ZM22.8042 6.2524C23.1112 6.39909 23.3376 6.55238 23.5 6.7036L24.5468 5.57924C24.2452 5.29839 23.8795 5.06362 23.4664 4.86626L22.8042 6.2524ZM23.5101 6.71284C23.6673 6.85399 23.7705 7.00273 23.8353 7.15999L25.2558 6.57507C25.0965 6.18824 24.8517 5.85291 24.5367 5.57L23.5101 6.71284ZM23.8406 7.17264C23.9086 7.32985 23.9514 7.5275 23.9514 7.77967H25.4877C25.4877 7.35173 25.4144 6.94129 25.2504 6.56241L23.8406 7.17264ZM23.9514 7.77967C23.9514 8.02924 23.9017 8.23178 23.8165 8.4023L25.1905 9.08932C25.3933 8.68376 25.4877 8.24219 25.4877 7.77967H23.9514ZM23.8165 8.4023C23.7274 8.58048 23.5992 8.73644 23.4202 8.87273L24.3507 10.0951C24.7077 9.82334 24.9916 9.48723 25.1905 9.08932L23.8165 8.4023ZM23.4202 8.87273C23.237 9.01217 23.0016 9.13201 22.7 9.22184L23.1386 10.6941C23.5891 10.5599 23.9978 10.3637 24.3507 10.0951L23.4202 8.87273ZM22.7051 9.22034C22.4142 9.30478 22.0718 9.3519 21.6711 9.3519V10.8881C22.1905 10.8881 22.6802 10.8272 23.1334 10.6957L22.7051 9.22034ZM21.6711 9.3519C21.339 9.3519 21.012 9.30602 20.6879 9.21343L20.2659 10.6906C20.7259 10.822 21.195 10.8881 21.6711 10.8881V9.3519ZM20.6899 9.21401C20.3804 9.12465 20.1036 8.99253 19.8552 8.81865L18.9743 10.0772C19.366 10.3514 19.7973 10.5553 20.2639 10.69L20.6899 9.21401ZM19.8589 8.82127C19.6302 8.65909 19.4514 8.4638 19.3155 8.23176L17.9897 9.00783C18.238 9.43188 18.5672 9.78867 18.9705 10.0746L19.8589 8.82127ZM19.321 8.2413C19.2072 8.04032 19.1387 7.79023 19.1387 7.46762H17.6025C17.6025 8.01713 17.722 8.53516 17.9842 8.99828L19.321 8.2413ZM18.3706 8.23573H19.5228V6.6995H18.3706V8.23573ZM18.7546 7.46762C18.7546 7.86645 18.8321 8.25504 19.0201 8.60515L20.3735 7.87832C20.3295 7.79636 20.2909 7.66888 20.2909 7.46762H18.7546ZM19.0229 8.61044C19.1963 8.92721 19.4346 9.19203 19.7304 9.39908L20.6113 8.14055C20.5071 8.06756 20.4293 7.98032 20.3706 7.87303L19.0229 8.61044ZM19.7362 9.40314C20.0175 9.5962 20.3289 9.7353 20.6638 9.82423L21.0582 8.33949C20.8809 8.29241 20.7322 8.22347 20.6055 8.13649L19.7362 9.40314ZM20.6774 9.82771C21.0002 9.90717 21.332 9.94599 21.6711 9.94599V8.40976C21.4501 8.40976 21.2418 8.38457 21.0446 8.33601L20.6774 9.82771ZM21.6711 9.94599C22.1416 9.94599 22.5866 9.88138 22.9825 9.72303L22.412 8.29667C22.2478 8.36236 22.0087 8.40976 21.6711 8.40976V9.94599ZM22.9825 9.72303C23.3752 9.56594 23.7197 9.32118 23.9649 8.967L22.7018 8.09256C22.659 8.15444 22.5793 8.22973 22.412 8.29667L22.9825 9.72303ZM23.9592 8.9751C24.2101 8.62251 24.3235 8.21655 24.3235 7.79167H22.7873C22.7873 7.93487 22.7526 8.02099 22.7075 8.08446L23.9592 8.9751ZM28.7461 3.50702H29.5143V2.7389H28.7461V3.50702ZM28.7461 4.35915V5.12726H29.5143V4.35915H28.7461ZM25.2356 4.35915H24.4675V5.12726H25.2356V4.35915ZM25.2356 3.50702V2.7389H24.4675V3.50702H25.2356ZM26.4238 1.92878V1.16067H25.6557V1.92878H26.4238ZM27.534 1.92878H28.3021V1.16067H27.534V1.92878ZM28.5361 9.14187L28.6575 9.90034L28.6694 9.89844L28.6812 9.89617L28.5361 9.14187ZM28.7702 9.09386L29.5383 9.08878L29.5319 8.12977L28.5974 8.34542L28.7702 9.09386ZM28.7762 10L29.009 10.732L29.548 10.5605L29.5443 9.99491L28.7762 10ZM28.4281 10.078L28.3018 9.32035L28.2896 9.32238L28.2775 9.32481L28.4281 10.078ZM26.6218 9.41791L25.9391 9.76993L25.9424 9.77636L25.9459 9.78272L26.6218 9.41791ZM27.978 3.50702V4.35915H29.5143V3.50702H27.978ZM28.7461 3.59103H25.2356V5.12726H28.7461V3.59103ZM26.0037 4.35915V3.50702H24.4675V4.35915H26.0037ZM25.2356 4.27514H28.7461V2.7389H25.2356V4.27514ZM26.4238 2.6969H27.534V1.16067H26.4238V2.6969ZM26.7658 1.92878V8.39176H28.3021V1.92878H26.7658ZM26.7658 8.39176C26.7658 8.66761 26.8043 9.00011 26.9794 9.28847L28.2926 8.4912C28.3155 8.52903 28.3162 8.54781 28.312 8.52718C28.3079 8.50729 28.3021 8.46443 28.3021 8.39176H26.7658ZM26.9794 9.28847C27.1268 9.53119 27.3508 9.73844 27.6571 9.84056L28.1429 8.38317C28.1818 8.39613 28.2179 8.41673 28.2474 8.44147C28.2756 8.46522 28.2891 8.48554 28.2926 8.4912L26.9794 9.28847ZM27.6571 9.84056C27.8501 9.9049 28.0488 9.93399 28.2481 9.93399V8.39776C28.1993 8.39776 28.1659 8.39084 28.1429 8.38317L27.6571 9.84056ZM28.2481 9.93399C28.3846 9.93399 28.5213 9.92213 28.6575 9.90034L28.4148 8.3834C28.3509 8.39362 28.2956 8.39776 28.2481 8.39776V9.93399ZM28.6812 9.89617C28.7873 9.87575 28.8766 9.8576 28.9429 9.84231L28.5974 8.34542C28.5597 8.35413 28.4929 8.36798 28.3911 8.38758L28.6812 9.89617ZM28.0021 9.09895L28.0081 10.0051L29.5443 9.99491L29.5383 9.08878L28.0021 9.09895ZM28.5433 9.26804C28.5041 9.2805 28.4279 9.29934 28.3018 9.32035L28.5544 10.8357C28.7164 10.8087 28.8722 10.7755 29.009 10.732L28.5433 9.26804ZM28.2775 9.32481C28.2023 9.33984 28.0859 9.3519 27.918 9.3519V10.8881C28.1502 10.8881 28.3738 10.8722 28.5787 10.8312L28.2775 9.32481ZM27.918 9.3519C27.7507 9.3519 27.6141 9.31942 27.4967 9.26382L26.8391 10.6522C27.1778 10.8126 27.5413 10.8881 27.918 10.8881V9.3519ZM27.4967 9.26382C27.4361 9.23509 27.3671 9.18148 27.2978 9.05311L25.9459 9.78272C26.1486 10.1584 26.4437 10.4649 26.8391 10.6522L27.4967 9.26382ZM27.3045 9.06589C27.2497 8.95956 27.1919 8.75152 27.1919 8.38576H25.6557C25.6557 8.88412 25.7299 9.36419 25.9391 9.76993L27.3045 9.06589ZM27.1919 8.38576V1.92878H25.6557V8.38576H27.1919ZM29.8383 5.3853L30.5655 5.63256L30.5663 5.63036L29.8383 5.3853ZM30.4264 4.33515L31.0074 4.83762L31.0107 4.83374L30.4264 4.33515ZM31.3565 3.63904L31.6721 4.33939L31.6784 4.33646L31.3565 3.63904ZM33.8109 3.63904L33.489 4.33652L33.4982 4.34064L33.8109 3.63904ZM34.7471 4.33515L34.1627 4.8338L34.17 4.84206L34.7471 4.33515ZM35.3411 5.3853L34.6132 5.63037L34.6139 5.63256L35.3411 5.3853ZM35.3411 8.12772L34.6139 7.88046L35.3411 8.12772ZM34.7471 9.17788L34.1666 8.67481L34.1661 8.67541L34.7471 9.17788ZM33.8169 9.87398L34.1354 10.573L34.1388 10.5714L33.8169 9.87398ZM31.3625 9.87398L31.0406 10.5714L31.047 10.5743L31.3625 9.87398ZM30.4264 9.17788L29.842 9.67653L29.8493 9.68479L30.4264 9.17788ZM30.8585 7.74366L30.1158 7.93965L30.1165 7.94222L30.8585 7.74366ZM31.2005 8.49977L30.5685 8.93643L30.5739 8.94407L31.2005 8.49977ZM31.7826 9.02185L31.4115 9.69446L31.4205 9.69928L31.7826 9.02185ZM33.3908 9.02185L33.7578 9.69664L33.7619 9.6944L33.3908 9.02185ZM34.309 7.74366L33.5689 7.53807L33.567 7.54509L34.309 7.74366ZM34.309 5.78136L33.5662 5.97738L33.5696 5.98963L34.309 5.78136ZM33.9609 5.01925L33.3253 5.45055L33.3298 5.45709L33.3344 5.46355L33.9609 5.01925ZM33.3848 4.49117L33.0088 5.16097L33.0138 5.16371L33.3848 4.49117ZM31.7766 4.49117L31.4055 3.81861L31.4006 3.82138L31.7766 4.49117ZM31.2005 5.01925L30.5702 4.58027L30.5686 4.58263L31.2005 5.01925ZM30.8585 5.78136L31.6005 5.97993L31.6012 5.97735L30.8585 5.78136ZM30.4024 6.82552V6.6875H28.8662V6.82552H30.4024ZM30.4024 6.6875C30.4024 6.29454 30.4593 5.9449 30.5655 5.63256L29.1111 5.13805C28.9452 5.62582 28.8662 6.14432 28.8662 6.6875H30.4024ZM30.5663 5.63036C30.6733 5.31235 30.8222 5.05172 31.0074 4.83761L29.8454 3.83268C29.5185 4.21066 29.2753 4.65014 29.1103 5.14024L30.5663 5.63036ZM31.0107 4.83374C31.1922 4.62104 31.4101 4.4574 31.6721 4.33936L31.041 2.93872C30.5749 3.14873 30.1727 3.44916 29.8421 3.83655L31.0107 4.83374ZM31.6784 4.33646C31.9294 4.22062 32.2256 4.15512 32.5807 4.15512V2.61889C32.0317 2.61889 31.5118 2.72141 31.0347 2.94162L31.6784 4.33646ZM32.5807 4.15512C32.9409 4.15512 33.2389 4.22102 33.489 4.33646L34.1328 2.94162C33.6548 2.72101 33.1327 2.61889 32.5807 2.61889V4.15512ZM33.4982 4.34064C33.7641 4.45912 33.9826 4.62268 34.1628 4.83374L35.3313 3.83655C34.9994 3.44753 34.5938 3.14701 34.1236 2.93744L33.4982 4.34064ZM34.17 4.84206C34.3575 5.05559 34.5069 5.31474 34.6132 5.63036L36.0691 5.14024C35.9033 4.64774 35.6567 4.20679 35.3242 3.82823L34.17 4.84206ZM34.6139 5.63256C34.7201 5.9449 34.7771 6.29454 34.7771 6.6875H36.3133C36.3133 6.14432 36.2342 5.62582 36.0684 5.13805L34.6139 5.63256ZM34.7771 6.6875V6.82552H36.3133V6.6875H34.7771ZM34.7771 6.82552C34.7771 7.21849 34.7201 7.56812 34.6139 7.88046L36.0684 8.37498C36.2342 7.8872 36.3133 7.3687 36.3133 6.82552H34.7771ZM34.6139 7.88046C34.5078 8.19268 34.3576 8.45448 34.1666 8.67481L35.3275 9.68094C35.6566 9.30118 35.9025 8.86288 36.0684 8.37498L34.6139 7.88046ZM34.1661 8.67541C33.9833 8.88673 33.7623 9.0532 33.495 9.17656L34.1388 10.5714C34.5996 10.3587 34.9987 10.0611 35.328 9.68034L34.1661 8.67541ZM33.4985 9.17498C33.2526 9.28701 32.9556 9.3519 32.5927 9.3519V10.8881C33.142 10.8881 33.6612 10.789 34.1353 10.573L33.4985 9.17498ZM32.5927 9.3519C32.23 9.3519 31.9298 9.28707 31.6781 9.17366L31.047 10.5743C31.5234 10.7889 32.0433 10.8881 32.5927 10.8881V9.3519ZM31.6844 9.17656C31.4161 9.0527 31.1914 8.88493 31.0035 8.67096L29.8493 9.68479C30.1814 10.0629 30.5809 10.3592 31.0407 10.5714L31.6844 9.17656ZM31.0107 8.67928C30.8222 8.45835 30.6725 8.19507 30.5655 7.88046L29.1111 8.37498C29.2762 8.86049 29.5186 9.29731 29.8421 9.67647L31.0107 8.67928ZM30.5655 7.88046C30.4593 7.56812 30.4024 7.21849 30.4024 6.82552H28.8662C28.8662 7.3687 28.9452 7.8872 29.1111 8.37498L30.5655 7.88046ZM29.9763 6.6875V6.82552H31.5126V6.6875H29.9763ZM29.9763 6.82552C29.9763 7.20997 30.0215 7.58231 30.1158 7.93965L31.6012 7.54767C31.5434 7.32892 31.5126 7.08917 31.5126 6.82552H29.9763ZM30.1165 7.94222C30.213 8.30291 30.3617 8.63705 30.5686 8.9364L31.8325 8.06315C31.7352 7.92243 31.656 7.7525 31.6005 7.54509L30.1165 7.94222ZM30.5739 8.94407C30.7956 9.25671 31.0764 9.50948 31.4115 9.6944L32.1537 8.34931C32.0248 8.27818 31.9175 8.1829 31.8271 8.05547L30.5739 8.94407ZM31.4205 9.69928C31.7816 9.89226 32.18 9.976 32.5927 9.976V8.43976C32.3894 8.43976 32.2477 8.39948 32.1447 8.34443L31.4205 9.69928ZM32.5927 9.976C33.0029 9.976 33.3993 9.89163 33.7578 9.69663L33.0239 8.34708C32.9263 8.40011 32.7906 8.43976 32.5927 8.43976V9.976ZM33.7619 9.6944C34.099 9.50843 34.38 9.25326 34.5989 8.9364L33.335 8.06315C33.2499 8.18636 33.1468 8.27924 33.0198 8.34931L33.7619 9.6944ZM34.5989 8.9364C34.8057 8.63705 34.9545 8.30291 35.051 7.94222L33.567 7.54509C33.5115 7.7525 33.4322 7.92243 33.335 8.06315L34.5989 8.9364ZM35.0491 7.94924C35.1492 7.58889 35.1971 7.21326 35.1971 6.82552H33.6609C33.6609 7.08588 33.6288 7.32234 33.5689 7.53808L35.0491 7.94924ZM35.1971 6.82552V6.6875H33.6609V6.82552H35.1971ZM35.1971 6.6875C35.1971 6.30295 35.149 5.93038 35.0483 5.5731L33.5696 5.98963C33.629 6.20043 33.6609 6.43195 33.6609 6.6875H35.1971ZM35.0517 5.58538C34.9546 5.21755 34.8021 4.87757 34.5875 4.57495L33.3344 5.46355C33.4318 5.60099 33.5113 5.76909 33.5663 5.97735L35.0517 5.58538ZM34.5965 4.58795C34.3781 4.26603 34.0962 4.0064 33.7559 3.81862L33.0138 5.16371C33.1375 5.23198 33.2397 5.3244 33.3253 5.45055L34.5965 4.58795ZM33.7609 3.82138C33.3991 3.61828 32.9969 3.53102 32.5807 3.53102V5.06726C32.7806 5.06726 32.9145 5.10802 33.0088 5.16095L33.7609 3.82138ZM32.5807 3.53102C32.1662 3.53102 31.767 3.6192 31.4055 3.81862L32.1477 5.16371C32.2503 5.1071 32.3871 5.06726 32.5807 5.06726V3.53102ZM31.4006 3.82138C31.067 4.00867 30.7895 4.2654 30.5702 4.58028L31.8308 5.45822C31.9236 5.32503 32.0302 5.2297 32.1526 5.16095L31.4006 3.82138ZM30.5686 4.58263C30.3605 4.8837 30.2119 5.22105 30.1158 5.58538L31.6012 5.97735C31.657 5.76559 31.7364 5.59486 31.8325 5.45587L30.5686 4.58263ZM30.1165 5.5828C30.0217 5.93705 29.9763 6.30628 29.9763 6.6875H31.5126C31.5126 6.42862 31.5432 6.19377 31.6005 5.97993L30.1165 5.5828ZM38.0476 4.52717H38.8157V4.51588L38.8153 4.50459L38.0476 4.52717ZM38.0476 10V10.7681H38.8157V10H38.0476ZM36.9374 10H36.1693V10.7681H36.9374V10ZM36.9374 3.50702V2.7389H36.1693V3.50702H36.9374ZM38.0175 3.50702L38.7853 3.48444L38.7634 2.7389H38.0175V3.50702ZM40.0759 3.47102L40.844 3.47548L40.8467 2.99768L40.4194 2.78399L40.0759 3.47102ZM40.0699 4.50317L39.9067 5.25376L40.8325 5.45501L40.838 4.50764L40.0699 4.50317ZM39.8058 4.46717L39.7294 5.23147L39.7493 5.23346L39.7693 5.23441L39.8058 4.46717ZM38.0296 5.42731L37.3163 5.14202L37.3134 5.14961L38.0296 5.42731ZM37.8795 6.07541L38.2634 6.74074L38.6039 6.54427L38.6437 6.15312L37.8795 6.07541ZM37.5675 6.25544H36.7994V7.58536L37.9513 6.92077L37.5675 6.25544ZM37.6815 5.15127L36.9333 4.97727L36.9315 4.98556L37.6815 5.15127ZM38.0476 4.23913L38.7 4.64446L38.7027 4.64006L38.0476 4.23913ZM38.6716 3.61504L39.0606 4.27738L39.0638 4.2755L38.6716 3.61504ZM39.8598 3.41701L39.7148 4.1713L39.7289 4.17401L39.743 4.17619L39.8598 3.41701ZM37.2794 4.52717V10H38.8157V4.52717H37.2794ZM38.0476 9.23188H36.9374V10.7681H38.0476V9.23188ZM37.7055 10V3.50702H36.1693V10H37.7055ZM36.9374 4.27514H38.0175V2.7389H36.9374V4.27514ZM37.2498 3.5296L37.2798 4.54976L38.8153 4.50459L38.7853 3.48444L37.2498 3.5296ZM39.3078 3.46655L39.3018 4.49871L40.838 4.50764L40.844 3.47548L39.3078 3.46655ZM40.233 3.75259C40.1042 3.72458 39.9737 3.70617 39.8424 3.69992L39.7693 5.23441C39.806 5.23616 39.8515 5.24176 39.9067 5.25376L40.233 3.75259ZM39.8822 3.70286C39.7707 3.69171 39.6524 3.68705 39.5298 3.68705V5.22328C39.6152 5.22328 39.6809 5.22662 39.7294 5.23147L39.8822 3.70286ZM39.5298 3.68705C39.1945 3.68705 38.8667 3.73942 38.5614 3.86402L39.1419 5.28634C39.2287 5.25092 39.353 5.22328 39.5298 5.22328V3.68705ZM38.5614 3.86402C38.271 3.98255 38.0115 4.15473 37.7952 4.38383L38.912 5.43864C38.9677 5.37969 39.0403 5.32783 39.1419 5.28634L38.5614 3.86402ZM37.7952 4.38383C37.5872 4.60403 37.4291 4.86017 37.3164 5.14204L38.7427 5.71258C38.79 5.59439 38.848 5.50648 38.912 5.43864L37.7952 4.38383ZM37.3134 5.14961C37.2095 5.41747 37.1454 5.70178 37.1154 5.9977L38.6437 6.15312C38.6616 5.97696 38.6976 5.82921 38.7457 5.70501L37.3134 5.14961ZM37.4957 5.41008L37.1836 5.5901L37.9513 6.92077L38.2634 6.74074L37.4957 5.41008ZM38.3356 6.25544C38.3356 5.91294 38.3688 5.60091 38.4315 5.31697L36.9315 4.98556C36.8422 5.38973 36.7994 5.81381 36.7994 6.25544H38.3356ZM38.4296 5.32526C38.4932 5.05203 38.5859 4.82813 38.7 4.64445L37.3951 3.83381C37.1811 4.17821 37.0298 4.5624 36.9333 4.97728L38.4296 5.32526ZM38.7027 4.64006C38.8059 4.4714 38.9256 4.3567 39.0606 4.27737L38.2827 2.9527C37.9137 3.16942 37.6172 3.47078 37.3924 3.8382L38.7027 4.64006ZM39.0638 4.2755C39.1811 4.20585 39.3444 4.15512 39.5838 4.15512V2.61889C39.1191 2.61889 38.6743 2.72017 38.2795 2.95457L39.0638 4.2755ZM39.5838 4.15512C39.6024 4.15512 39.6442 4.15773 39.7148 4.1713L40.0049 2.66271C39.8674 2.63627 39.7252 2.61889 39.5838 2.61889V4.15512ZM39.743 4.17619C39.761 4.17895 39.7752 4.18144 39.7861 4.18356C39.7972 4.1857 39.8034 4.18716 39.8056 4.18769C39.808 4.18831 39.8032 4.18723 39.7931 4.18378C39.7878 4.18198 39.78 4.17919 39.7703 4.17524C39.7606 4.17133 39.7477 4.16571 39.7323 4.15804L40.4194 2.78399C40.2613 2.70494 40.0818 2.674 39.9766 2.65782L39.743 4.17619ZM43.0343 9.3279L43.7555 9.59233L43.7622 9.57409L43.7679 9.55554L43.0343 9.3279ZM44.8406 3.50702V2.7389H44.2747L44.107 3.27938L44.8406 3.50702ZM46.0288 3.50702L46.7543 3.75914L47.1088 2.7389H46.0288V3.50702ZM43.4244 11.0022L44.1436 11.2719L44.1469 11.2631L44.1499 11.2543L43.4244 11.0022ZM43.1843 11.5182L42.5094 11.1514L42.5047 11.1601L42.5002 11.1689L43.1843 11.5182ZM42.2602 12.4604L41.927 11.7683L41.9192 11.772L41.9115 11.7759L42.2602 12.4604ZM40.874 12.5264L40.1059 12.5315L40.1097 13.1069L40.663 13.2649L40.874 12.5264ZM40.868 11.6262L40.9633 10.8641L40.094 10.7554L40.0999 11.6314L40.868 11.6262ZM41.018 11.6382L41.1028 10.8748L41.083 10.8726L41.0631 10.8715L41.018 11.6382ZM41.8101 11.5482L41.5476 10.8264L41.5404 10.829L41.5333 10.8317L41.8101 11.5482ZM42.2542 11.2182L41.659 10.7326L41.6521 10.7411L41.6454 10.7499L42.2542 11.2182ZM42.5722 10.5881L41.8511 10.3237L41.8466 10.336L41.8425 10.3485L42.5722 10.5881ZM41.7081 3.50702L42.4365 3.26334L42.2611 2.7389H41.7081V3.50702ZM43.3944 8.54778L44.1402 8.36419L44.1327 8.33379L44.1228 8.3041L43.3944 8.54778ZM43.6824 9.71796L44.0321 10.4019L44.5736 10.125L44.4283 9.53436L43.6824 9.71796ZM42.8843 10.126L42.1618 10.3867L42.4577 11.2068L43.234 10.8099L42.8843 10.126ZM40.4959 3.50702V2.7389H39.4022L39.7734 3.76773L40.4959 3.50702ZM43.7679 9.55554L45.5742 3.73467L44.107 3.27938L42.3007 9.10025L43.7679 9.55554ZM44.8406 4.27514H46.0288V2.7389H44.8406V4.27514ZM45.3032 3.2549L42.6988 10.75L44.1499 11.2543L46.7543 3.75914L45.3032 3.2549ZM42.7052 10.7324C42.6601 10.8527 42.5961 10.992 42.5094 11.1514L43.8592 11.885C43.9726 11.6764 44.0686 11.4717 44.1436 11.2719L42.7052 10.7324ZM42.5002 11.1689C42.4371 11.2926 42.3527 11.4154 42.2427 11.537L43.3819 12.5676C43.5759 12.3532 43.7395 12.1199 43.8684 11.8676L42.5002 11.1689ZM42.2427 11.537C42.1611 11.6271 42.0588 11.7048 41.927 11.7683L42.5934 13.1524C42.8936 13.0079 43.1594 12.8135 43.3819 12.5676L42.2427 11.537ZM41.9115 11.7759C41.8306 11.8172 41.7019 11.8543 41.4981 11.8543V13.3905C41.8863 13.3905 42.2657 13.3196 42.6089 13.1448L41.9115 11.7759ZM41.4981 11.8543C41.4725 11.8543 41.4093 11.85 41.2955 11.83L41.0285 13.3428C41.1868 13.3707 41.3476 13.3905 41.4981 13.3905V11.8543ZM41.2955 11.83C41.2324 11.8188 41.1826 11.8093 41.1447 11.8014C41.1258 11.7975 41.1113 11.7942 41.1005 11.7917C41.0893 11.789 41.0847 11.7877 41.085 11.7878L40.663 13.2649C40.7611 13.293 40.892 13.3187 41.0285 13.3428L41.2955 11.83ZM41.6421 12.5213L41.6361 11.6211L40.0999 11.6314L40.1059 12.5315L41.6421 12.5213ZM40.7727 12.3884C40.8312 12.3957 40.9023 12.4009 40.9729 12.405L41.0631 10.8715C41.0327 10.8697 41.0089 10.868 40.9907 10.8666C40.9818 10.8659 40.9749 10.8652 40.9699 10.8648C40.9648 10.8643 40.9628 10.864 40.9633 10.8641L40.7727 12.3884ZM40.9332 12.4017C41.0029 12.4094 41.0921 12.4184 41.168 12.4184V10.8821C41.1781 10.8821 41.1836 10.8825 41.1822 10.8824C41.1815 10.8824 41.1779 10.8821 41.1708 10.8816C41.1562 10.8804 41.1341 10.8783 41.1028 10.8748L40.9332 12.4017ZM41.168 12.4184C41.4848 12.4184 41.7985 12.3762 42.0869 12.2647L41.5333 10.8317C41.4697 10.8563 41.3553 10.8821 41.168 10.8821V12.4184ZM42.0726 12.2701C42.393 12.1536 42.6588 11.9521 42.863 11.6865L41.6454 10.7499C41.6096 10.7964 41.5793 10.8148 41.5476 10.8264L42.0726 12.2701ZM42.8494 11.7037C43.0529 11.4542 43.1964 11.1494 43.302 10.8277L41.8425 10.3485C41.772 10.5629 41.7035 10.6781 41.659 10.7326L42.8494 11.7037ZM43.2934 10.8525L43.7555 9.59233L42.3131 9.06347L41.8511 10.3237L43.2934 10.8525ZM40.9797 3.7507L42.6659 8.79146L44.1228 8.3041L42.4365 3.26334L40.9797 3.7507ZM42.6485 8.73138L42.9366 9.90155L44.4283 9.53436L44.1402 8.36419L42.6485 8.73138ZM43.3327 9.03405L42.5346 9.44211L43.234 10.8099L44.0321 10.4019L43.3327 9.03405ZM43.6068 9.86531L41.2184 3.24631L39.7734 3.76773L42.1618 10.3867L43.6068 9.86531ZM40.4959 4.27514H41.7081V2.7389H40.4959V4.27514ZM49.9894 5.3853L50.7166 5.63256L50.7173 5.63036L49.9894 5.3853ZM50.5774 4.33515L51.1584 4.83762L51.1617 4.83374L50.5774 4.33515ZM51.5076 3.63904L51.8231 4.33939L51.8295 4.33646L51.5076 3.63904ZM53.962 3.63904L53.64 4.33652L53.6493 4.34064L53.962 3.63904ZM54.8981 4.33515L54.3137 4.8338L54.321 4.84206L54.8981 4.33515ZM55.4922 5.3853L54.7642 5.63037L54.765 5.63256L55.4922 5.3853ZM55.4922 8.12772L54.765 7.88046L55.4922 8.12772ZM54.8981 9.17788L54.3176 8.67481L54.3171 8.67541L54.8981 9.17788ZM53.968 9.87398L54.2864 10.573L54.2898 10.5714L53.968 9.87398ZM51.5136 9.87398L51.1917 10.5714L51.1981 10.5743L51.5136 9.87398ZM50.5774 9.17788L49.9931 9.67653L50.0003 9.68479L50.5774 9.17788ZM51.0095 7.74366L50.2668 7.93965L50.2675 7.94222L51.0095 7.74366ZM51.3516 8.49977L50.7196 8.93643L50.725 8.94407L51.3516 8.49977ZM51.9336 9.02185L51.5626 9.69446L51.5716 9.69928L51.9336 9.02185ZM53.5419 9.02185L53.9089 9.69664L53.913 9.6944L53.5419 9.02185ZM54.46 7.74366L53.7199 7.53807L53.718 7.54509L54.46 7.74366ZM54.46 5.78136L53.7172 5.97738L53.7207 5.98963L54.46 5.78136ZM54.112 5.01925L53.4764 5.45055L53.4808 5.45709L53.4854 5.46355L54.112 5.01925ZM53.5359 4.49117L53.1599 5.16097L53.1648 5.16371L53.5359 4.49117ZM51.9276 4.49117L51.5566 3.81861L51.5516 3.82138L51.9276 4.49117ZM51.3516 5.01925L50.7212 4.58027L50.7196 4.58263L51.3516 5.01925ZM51.0095 5.78136L51.7515 5.97993L51.7522 5.97735L51.0095 5.78136ZM50.5534 6.82552V6.6875H49.0172V6.82552H50.5534ZM50.5534 6.6875C50.5534 6.29454 50.6104 5.9449 50.7166 5.63256L49.2621 5.13805C49.0963 5.62582 49.0172 6.14432 49.0172 6.6875H50.5534ZM50.7173 5.63036C50.8244 5.31235 50.9732 5.05172 51.1584 4.83761L49.9965 3.83268C49.6696 4.21066 49.4264 4.65014 49.2614 5.14024L50.7173 5.63036ZM51.1617 4.83374C51.3432 4.62104 51.5611 4.4574 51.8231 4.33936L51.1921 2.93872C50.7259 3.14873 50.3237 3.44916 49.9931 3.83655L51.1617 4.83374ZM51.8295 4.33646C52.0805 4.22062 52.3766 4.15512 52.7318 4.15512V2.61889C52.1828 2.61889 51.6628 2.72141 51.1857 2.94162L51.8295 4.33646ZM52.7318 4.15512C53.092 4.15512 53.3899 4.22102 53.6401 4.33646L54.2838 2.94162C53.8059 2.72101 53.2837 2.61889 52.7318 2.61889V4.15512ZM53.6493 4.34064C53.9151 4.45912 54.1337 4.62268 54.3138 4.83374L55.4824 3.83655C55.1504 3.44753 54.7449 3.14701 54.2746 2.93744L53.6493 4.34064ZM54.321 4.84206C54.5086 5.05559 54.658 5.31474 54.7642 5.63036L56.2202 5.14024C56.0544 4.64774 55.8077 4.20679 55.4752 3.82823L54.321 4.84206ZM54.765 5.63256C54.8712 5.9449 54.9281 6.29454 54.9281 6.6875H56.4643C56.4643 6.14432 56.3853 5.62582 56.2194 5.13805L54.765 5.63256ZM54.9281 6.6875V6.82552H56.4643V6.6875H54.9281ZM54.9281 6.82552C54.9281 7.21849 54.8712 7.56812 54.765 7.88046L56.2194 8.37498C56.3853 7.8872 56.4643 7.3687 56.4643 6.82552H54.9281ZM54.765 7.88046C54.6588 8.19268 54.5086 8.45448 54.3176 8.67481L55.4786 9.68094C55.8077 9.30118 56.0535 8.86288 56.2194 8.37498L54.765 7.88046ZM54.3171 8.67541C54.1344 8.88673 53.9134 9.0532 53.6461 9.17656L54.2898 10.5714C54.7507 10.3587 55.1498 10.0611 55.4791 9.68034L54.3171 8.67541ZM53.6495 9.17498C53.4036 9.28701 53.1067 9.3519 52.7438 9.3519V10.8881C53.293 10.8881 53.8122 10.789 54.2864 10.573L53.6495 9.17498ZM52.7438 9.3519C52.3811 9.3519 52.0808 9.28707 51.8291 9.17366L51.1981 10.5743C51.6745 10.7889 52.1943 10.8881 52.7438 10.8881V9.3519ZM51.8355 9.17656C51.5671 9.0527 51.3425 8.88493 51.1545 8.67096L50.0003 9.68479C50.3325 10.0629 50.732 10.3592 51.1917 10.5714L51.8355 9.17656ZM51.1617 8.67928C50.9732 8.45835 50.8236 8.19507 50.7166 7.88046L49.2621 8.37498C49.4272 8.86049 49.6696 9.29731 49.9931 9.67647L51.1617 8.67928ZM50.7166 7.88046C50.6104 7.56812 50.5534 7.21849 50.5534 6.82552H49.0172C49.0172 7.3687 49.0963 7.8872 49.2621 8.37498L50.7166 7.88046ZM50.1274 6.6875V6.82552H51.6636V6.6875H50.1274ZM50.1274 6.82552C50.1274 7.20997 50.1725 7.58231 50.2668 7.93965L51.7522 7.54767C51.6945 7.32892 51.6636 7.08917 51.6636 6.82552H50.1274ZM50.2675 7.94222C50.364 8.30291 50.5128 8.63705 50.7196 8.9364L51.9835 8.06315C51.8863 7.92243 51.807 7.7525 51.7515 7.54509L50.2675 7.94222ZM50.725 8.94407C50.9467 9.25671 51.2274 9.50948 51.5626 9.6944L52.3047 8.34931C52.1758 8.27818 52.0685 8.1829 51.9781 8.05547L50.725 8.94407ZM51.5716 9.69928C51.9326 9.89226 52.331 9.976 52.7438 9.976V8.43976C52.5404 8.43976 52.3987 8.39948 52.2957 8.34443L51.5716 9.69928ZM52.7438 9.976C53.154 9.976 53.5503 9.89163 53.9089 9.69663L53.1749 8.34708C53.0774 8.40011 52.9417 8.43976 52.7438 8.43976V9.976ZM53.913 9.6944C54.25 9.50843 54.531 9.25326 54.7499 8.9364L53.486 8.06315C53.4009 8.18636 53.2978 8.27924 53.1708 8.34931L53.913 9.6944ZM54.7499 8.9364C54.9567 8.63705 55.1055 8.30291 55.202 7.94222L53.718 7.54509C53.6625 7.7525 53.5833 7.92243 53.486 8.06315L54.7499 8.9364ZM55.2001 7.94924C55.3002 7.58889 55.3482 7.21326 55.3482 6.82552H53.8119C53.8119 7.08588 53.7799 7.32234 53.7199 7.53808L55.2001 7.94924ZM55.3482 6.82552V6.6875H53.8119V6.82552H55.3482ZM55.3482 6.6875C55.3482 6.30295 55.3 5.93038 55.1994 5.5731L53.7207 5.98963C53.7801 6.20043 53.8119 6.43195 53.8119 6.6875H55.3482ZM55.2027 5.58538C55.1057 5.21755 54.9531 4.87757 54.7386 4.57495L53.4854 5.46355C53.5829 5.60099 53.6624 5.76909 53.7173 5.97735L55.2027 5.58538ZM54.7476 4.58795C54.5291 4.26603 54.2473 4.0064 53.907 3.81862L53.1648 5.16371C53.2886 5.23198 53.3908 5.3244 53.4764 5.45055L54.7476 4.58795ZM53.9119 3.82138C53.5501 3.61828 53.148 3.53102 52.7318 3.53102V5.06726C52.9317 5.06726 53.0656 5.10802 53.1599 5.16095L53.9119 3.82138ZM52.7318 3.53102C52.3173 3.53102 51.918 3.6192 51.5566 3.81862L52.2987 5.16371C52.4013 5.1071 52.5382 5.06726 52.7318 5.06726V3.53102ZM51.5516 3.82138C51.218 4.00867 50.9405 4.2654 50.7212 4.58028L51.9819 5.45822C52.0746 5.32503 52.1812 5.2297 52.3037 5.16095L51.5516 3.82138ZM50.7196 4.58263C50.5116 4.8837 50.363 5.22105 50.2668 5.58538L51.7522 5.97735C51.8081 5.76559 51.8875 5.59486 51.9835 5.45587L50.7196 4.58263ZM50.2675 5.5828C50.1727 5.93705 50.1274 6.30628 50.1274 6.6875H51.6636C51.6636 6.42862 51.6943 6.19377 51.7515 5.97993L50.2675 5.5828ZM58.1986 4.89323H58.9667V4.87661L58.966 4.86001L58.1986 4.89323ZM58.1986 10V10.7681H58.9667V10H58.1986ZM57.0884 10H56.3203V10.7681H57.0884V10ZM57.0884 3.50702V2.7389H56.3203V3.50702H57.0884ZM58.1386 3.50702L58.906 3.4738L58.8742 2.7389H58.1386V3.50702ZM57.9345 6.50747L57.9046 7.27501L58.7027 7.3061V6.50747H57.9345ZM57.4725 6.48947L56.7044 6.48255L56.6977 7.22798L57.4426 7.257L57.4725 6.48947ZM57.6705 5.25928L58.3977 5.50682L58.3984 5.50448L57.6705 5.25928ZM59.0387 3.62104L59.3683 4.31487L59.3719 4.31311L59.0387 3.62104ZM60.977 3.51902L60.7273 4.24549L60.7375 4.24885L60.977 3.51902ZM61.6311 3.92708L61.0763 4.45832L61.0822 4.46435L61.6311 3.92708ZM62.0512 4.65919L61.3196 4.8933L61.3205 4.89616L62.0512 4.65919ZM62.1952 10V10.7681H62.9633V10H62.1952ZM61.079 10H60.3109V10.7681H61.079V10ZM60.929 4.91723L60.2367 5.25006L60.2393 5.25532L60.929 4.91723ZM60.4909 4.46717L60.1474 5.15429L60.159 5.15986L60.4909 4.46717ZM59.0267 4.49717L58.6784 3.81255L58.6735 3.81509L59.0267 4.49717ZM58.4446 4.97724L57.8459 4.49594L57.8402 4.50321L58.4446 4.97724ZM58.0666 5.67935L57.3412 5.42657L57.339 5.43309L58.0666 5.67935ZM57.4305 4.89323V10H58.9667V4.89323H57.4305ZM58.1986 9.23188H57.0884V10.7681H58.1986V9.23188ZM57.8565 10V3.50702H56.3203V10H57.8565ZM57.0884 4.27514H58.1386V2.7389H57.0884V4.27514ZM57.3712 3.54024L57.4312 4.92645L58.966 4.86001L58.906 3.4738L57.3712 3.54024ZM57.9645 5.73994L57.5024 5.72194L57.4426 7.257L57.9046 7.27501L57.9645 5.73994ZM58.2406 6.49639C58.2439 6.12465 58.2989 5.79682 58.3976 5.50682L56.9434 5.01175C56.7861 5.47387 56.709 5.96616 56.7044 6.48255L58.2406 6.49639ZM58.3984 5.50448C58.4995 5.20456 58.636 4.95959 58.8021 4.75921L57.6191 3.77906C57.3211 4.13876 57.0976 4.55389 56.9426 5.01409L58.3984 5.50448ZM58.8021 4.75921C58.9646 4.56301 59.1521 4.41757 59.3683 4.31486L58.7092 2.92722C58.2853 3.12855 57.9206 3.41518 57.6191 3.77906L58.8021 4.75921ZM59.3719 4.31311C59.5829 4.21153 59.8256 4.15512 60.1129 4.15512V2.61889C59.616 2.61889 59.1426 2.7185 58.7055 2.92896L59.3719 4.31311ZM60.1129 4.15512C60.363 4.15512 60.5647 4.18954 60.7273 4.24542L61.2267 2.79263C60.8772 2.67248 60.5028 2.61889 60.1129 2.61889V4.15512ZM60.7375 4.24885C60.8781 4.29498 60.9866 4.36462 61.0763 4.45829L62.1859 3.39588C61.9156 3.11349 61.588 2.91109 61.2165 2.78919L60.7375 4.24885ZM61.0822 4.46435C61.1676 4.55164 61.2529 4.68487 61.3196 4.8933L62.7827 4.42509C62.6574 4.03342 62.4627 3.67858 62.1801 3.38982L61.0822 4.46435ZM61.3205 4.89616C61.3844 5.09298 61.4271 5.36981 61.4271 5.74536H62.9633C62.9633 5.26478 62.91 4.8175 62.7818 4.42223L61.3205 4.89616ZM61.4271 5.74536V10H62.9633V5.74536H61.4271ZM62.1952 9.23188H61.079V10.7681H62.1952V9.23188ZM61.8471 10V5.73336H60.3109V10H61.8471ZM61.8471 5.73336C61.8471 5.32936 61.7895 4.92759 61.6187 4.57914L60.2393 5.25532C60.2685 5.31494 60.3109 5.45725 60.3109 5.73336H61.8471ZM61.6213 4.58441C61.4524 4.23307 61.186 3.94848 60.8229 3.77447L60.159 5.15986C60.1799 5.16988 60.2056 5.18533 60.2367 5.25005L61.6213 4.58441ZM60.8344 3.78014C60.5084 3.6171 60.1472 3.55503 59.7828 3.55503V5.09126C59.9786 5.09126 60.0894 5.1252 60.1474 5.15419L60.8344 3.78014ZM59.7828 3.55503C59.3955 3.55503 59.0227 3.63739 58.6784 3.81257L59.375 5.18177C59.4868 5.12492 59.6181 5.09126 59.7828 5.09126V3.55503ZM58.6735 3.81509C58.351 3.9821 58.0744 4.21187 57.846 4.49597L59.0433 5.45851C59.1429 5.33455 59.2544 5.24427 59.3799 5.17925L58.6735 3.81509ZM57.8402 4.50321C57.624 4.77886 57.4589 5.08889 57.3412 5.42658L58.7919 5.93212C58.8583 5.74173 58.9452 5.58369 59.049 5.45128L57.8402 4.50321ZM57.339 5.43309C57.2225 5.77738 57.1664 6.13705 57.1664 6.50747H58.7027C58.7027 6.29381 58.7346 6.10139 58.7941 5.9256L57.339 5.43309ZM65.0876 0.782609H65.8557V0.0144936H65.0876V0.782609ZM65.0876 10V10.7681H65.8557V10H65.0876ZM63.9715 10H63.2033V10.7681H63.9715V10ZM63.9715 0.782609V0.0144936H63.2033V0.782609H63.9715ZM64.3195 0.782609V10H65.8557V0.782609H64.3195ZM65.0876 9.23188H63.9715V10.7681H65.0876V9.23188ZM64.7396 10V0.782609H63.2033V10H64.7396ZM63.9715 1.55073H65.0876V0.0144936H63.9715V1.55073ZM68.0761 3.50702H68.8442V2.7389H68.0761V3.50702ZM68.0761 10V10.7681H68.8442V10H68.0761ZM66.9599 10H66.1918V10.7681H66.9599V10ZM66.9599 3.50702V2.7389H66.1918V3.50702H66.9599ZM67.0379 1.32869L66.4678 0.81375L66.4587 0.824208L67.0379 1.32869ZM68.0161 1.32869L67.446 1.84363L67.4551 1.85344L68.0161 1.32869ZM68.0161 2.22883L67.4551 1.70408L67.4545 1.70473L68.0161 2.22883ZM67.0379 2.22883L66.4587 2.73331L66.4674 2.74327L66.4764 2.75293L67.0379 2.22883ZM67.308 3.50702V10H68.8442V3.50702H67.308ZM68.0761 9.23188H66.9599V10.7681H68.0761V9.23188ZM67.728 10V3.50702H66.1918V10H67.728ZM66.9599 4.27514H68.0761V2.7389H66.9599V4.27514ZM67.644 1.78476C67.644 1.77228 67.6457 1.77732 67.6402 1.79286C67.6376 1.80022 67.634 1.80809 67.6295 1.81578C67.625 1.82344 67.6205 1.82928 67.6171 1.83318L66.4587 0.824208C66.217 1.1017 66.1078 1.4382 66.1078 1.78476H67.644ZM67.6079 1.84355C67.5943 1.85862 67.5784 1.87255 67.561 1.88428C67.5437 1.89592 67.5281 1.90329 67.5166 1.90766C67.4943 1.91609 67.494 1.91078 67.53 1.91078V0.374548C67.1642 0.374548 66.7654 0.484483 66.4679 0.813834L67.6079 1.84355ZM67.53 1.91078C67.5624 1.91078 67.5597 1.91562 67.536 1.90654C67.5239 1.9019 67.5082 1.89435 67.4913 1.88282C67.4742 1.87123 67.4589 1.85775 67.4461 1.84355L68.5861 0.813834C68.2913 0.487452 67.8969 0.374548 67.53 0.374548V1.91078ZM67.4551 1.85344C67.4482 1.84599 67.437 1.8306 67.4289 1.80956C67.4212 1.7893 67.422 1.7784 67.422 1.78476H68.9582C68.9582 1.42273 68.8347 1.07939 68.577 0.803948L67.4551 1.85344ZM67.422 1.78476C67.422 1.78278 67.4227 1.7669 67.4314 1.74453C67.4403 1.72199 67.4513 1.70818 67.4551 1.70408L68.577 2.75357C68.8281 2.48521 68.9582 2.14884 68.9582 1.78476H67.422ZM67.4545 1.70473C67.4682 1.69008 67.484 1.67674 67.5009 1.66561C67.5178 1.65457 67.5327 1.64763 67.5438 1.64355C67.5651 1.63566 67.5649 1.64074 67.53 1.64074V3.17697C67.8894 3.17697 68.2809 3.07079 68.5776 2.75293L67.4545 1.70473ZM67.53 1.64074C67.4915 1.64074 67.489 1.63521 67.5089 1.64249C67.5193 1.6463 67.5342 1.65306 67.5513 1.66421C67.5685 1.67546 67.585 1.68922 67.5995 1.70473L66.4764 2.75293C66.7757 3.07361 67.1716 3.17697 67.53 3.17697V1.64074ZM67.6171 1.72434C67.6222 1.73018 67.6313 1.74324 67.638 1.76152C67.6445 1.77928 67.644 1.78921 67.644 1.78476H66.1078C66.1078 2.13293 66.2229 2.46259 66.4587 2.73331L67.6171 1.72434ZM70.9685 4.89323H71.7366V4.87661L71.7359 4.86001L70.9685 4.89323ZM70.9685 10V10.7681H71.7366V10H70.9685ZM69.8583 10H69.0902V10.7681H69.8583V10ZM69.8583 3.50702V2.7389H69.0902V3.50702H69.8583ZM70.9085 3.50702L71.6759 3.4738L71.6441 2.7389H70.9085V3.50702ZM70.7045 6.50747L70.6746 7.27501L71.4726 7.3061V6.50747H70.7045ZM70.2424 6.48947L69.4743 6.48255L69.4676 7.22798L70.2125 7.257L70.2424 6.48947ZM70.4404 5.25928L71.1676 5.50682L71.1684 5.50448L70.4404 5.25928ZM71.8086 3.62104L72.1382 4.31487L72.1419 4.31311L71.8086 3.62104ZM73.7469 3.51902L73.4972 4.24549L73.5075 4.24885L73.7469 3.51902ZM74.401 3.92708L73.8462 4.45832L73.8521 4.46435L74.401 3.92708ZM74.8211 4.65919L74.0895 4.8933L74.0904 4.89616L74.8211 4.65919ZM74.9651 10V10.7681H75.7332V10H74.9651ZM73.849 10H73.0808V10.7681H73.849V10ZM73.6989 4.91723L73.0066 5.25006L73.0092 5.25532L73.6989 4.91723ZM73.2609 4.46717L72.9173 5.15429L72.9289 5.15986L73.2609 4.46717ZM71.7966 4.49717L71.4483 3.81255L71.4434 3.81509L71.7966 4.49717ZM71.2146 4.97724L70.6159 4.49594L70.6102 4.50321L71.2146 4.97724ZM70.8365 5.67935L70.1111 5.42657L70.1089 5.43309L70.8365 5.67935ZM70.2004 4.89323V10H71.7366V4.89323H70.2004ZM70.9685 9.23188H69.8583V10.7681H70.9685V9.23188ZM70.6265 10V3.50702H69.0902V10H70.6265ZM69.8583 4.27514H70.9085V2.7389H69.8583V4.27514ZM70.1411 3.54024L70.2011 4.92645L71.7359 4.86001L71.6759 3.4738L70.1411 3.54024ZM70.7344 5.73994L70.2723 5.72194L70.2125 7.257L70.6746 7.27501L70.7344 5.73994ZM71.0105 6.49639C71.0138 6.12465 71.0689 5.79682 71.1676 5.50682L69.7133 5.01175C69.556 5.47387 69.479 5.96616 69.4743 6.48255L71.0105 6.49639ZM71.1684 5.50448C71.2694 5.20456 71.406 4.95959 71.572 4.75921L70.3891 3.77906C70.091 4.13876 69.8675 4.55389 69.7125 5.01409L71.1684 5.50448ZM71.572 4.75921C71.7346 4.56301 71.922 4.41757 72.1382 4.31486L71.4791 2.92722C71.0552 3.12855 70.6906 3.41518 70.3891 3.77906L71.572 4.75921ZM72.1419 4.31311C72.3529 4.21153 72.5956 4.15512 72.8828 4.15512V2.61889C72.3859 2.61889 71.9125 2.7185 71.4754 2.92896L72.1419 4.31311ZM72.8828 4.15512C73.133 4.15512 73.3347 4.18954 73.4972 4.24542L73.9966 2.79263C73.6471 2.67248 73.2727 2.61889 72.8828 2.61889V4.15512ZM73.5075 4.24885C73.648 4.29498 73.7565 4.36462 73.8462 4.45829L74.9559 3.39588C74.6855 3.11349 74.3579 2.91109 73.9864 2.78919L73.5075 4.24885ZM73.8521 4.46435C73.9375 4.55164 74.0228 4.68487 74.0895 4.8933L75.5527 4.42509C75.4273 4.03342 75.2326 3.67858 74.95 3.38982L73.8521 4.46435ZM74.0904 4.89616C74.1543 5.09298 74.197 5.36981 74.197 5.74536H75.7332C75.7332 5.26478 75.6799 4.8175 75.5517 4.42223L74.0904 4.89616ZM74.197 5.74536V10H75.7332V5.74536H74.197ZM74.9651 9.23188H73.849V10.7681H74.9651V9.23188ZM74.6171 10V5.73336H73.0808V10H74.6171ZM74.6171 5.73336C74.6171 5.32936 74.5594 4.92759 74.3886 4.57914L73.0092 5.25532C73.0384 5.31494 73.0808 5.45725 73.0808 5.73336H74.6171ZM74.3912 4.58441C74.2223 4.23307 73.9559 3.94848 73.5928 3.77447L72.9289 5.15986C72.9498 5.16988 72.9755 5.18533 73.0067 5.25005L74.3912 4.58441ZM73.6044 3.78014C73.2783 3.6171 72.9171 3.55503 72.5528 3.55503V5.09126C72.7485 5.09126 72.8594 5.1252 72.9174 5.15419L73.6044 3.78014ZM72.5528 3.55503C72.1654 3.55503 71.7926 3.63739 71.4483 3.81257L72.145 5.18177C72.2567 5.12492 72.388 5.09126 72.5528 5.09126V3.55503ZM71.4434 3.81509C71.1209 3.9821 70.8443 4.21187 70.6159 4.49597L71.8132 5.45851C71.9129 5.33455 72.0243 5.24427 72.1499 5.17925L71.4434 3.81509ZM70.6102 4.50321C70.394 4.77886 70.2288 5.08889 70.1112 5.42658L71.5618 5.93212C71.6282 5.74173 71.7151 5.58369 71.8189 5.45128L70.6102 4.50321ZM70.1089 5.43309C69.9924 5.77738 69.9364 6.13705 69.9364 6.50747H71.4726C71.4726 6.29381 71.5046 6.10139 71.5641 5.9256L70.1089 5.43309ZM78.1156 9.89198L77.813 10.5981L77.8224 10.6019L78.1156 9.89198ZM77.1735 9.23789L76.6106 9.76057L76.6146 9.76482L77.1735 9.23789ZM76.5734 8.24173L75.8517 8.50484L76.5734 8.24173ZM76.5974 5.31929L77.3157 5.59129L77.3166 5.589L76.5974 5.31929ZM77.2335 4.26313L76.6712 3.73987L77.2335 4.26313ZM80.4019 3.62704L80.0717 4.32055L80.0749 4.32204L80.4019 3.62704ZM81.2361 4.29914L80.6216 4.76002L80.6247 4.76413L81.2361 4.29914ZM81.7161 5.30729L80.9742 5.50616L80.9747 5.50809L81.7161 5.30729ZM81.8722 7.06556V7.83367H82.6403V7.06556H81.8722ZM77.0234 7.06556H76.2553V7.83367H77.0234V7.06556ZM77.0234 6.15942V5.3913H76.2553V6.15942H77.0234ZM80.762 6.15942V6.92754H81.5301V6.15942H80.762ZM80.762 6.07541H81.5301V6.05409L81.5289 6.0328L80.762 6.07541ZM80.582 5.23528L79.861 5.50035L79.8645 5.5096L80.582 5.23528ZM78.5057 4.46116L78.844 5.15085L78.8543 5.14559L78.5057 4.46116ZM77.6055 7.85168L76.8715 8.07836L76.8757 8.09131L77.6055 7.85168ZM77.9836 8.55978L77.3849 9.04108L77.3906 9.04808L77.9836 8.55978ZM78.5897 9.03986L78.2508 9.72921L78.2554 9.73143L78.5897 9.03986ZM81.1161 8.33175L81.5939 7.73038L80.9799 7.24245L80.5049 7.86651L81.1161 8.33175ZM81.7882 8.86583L82.4291 9.28911L82.8168 8.7021L82.266 8.26446L81.7882 8.86583ZM80.456 9.93999L80.1833 9.2219L80.1802 9.22307L80.456 9.93999ZM79.3458 9.3519C78.9808 9.3519 78.6722 9.29081 78.4088 9.18204L77.8224 10.6019C78.2952 10.7972 78.8066 10.8881 79.3458 10.8881V9.3519ZM78.4182 9.18597C78.148 9.0702 77.922 8.91211 77.7323 8.71095L76.6146 9.76482C76.953 10.1237 77.355 10.4017 77.813 10.598L78.4182 9.18597ZM77.7363 8.71522C77.5508 8.51537 77.4024 8.27324 77.295 7.97863L75.8517 8.50484C76.0244 8.97835 76.2761 9.40032 76.6106 9.76055L77.7363 8.71522ZM77.295 7.97863C77.1891 7.68806 77.1315 7.35819 77.1315 6.98154H75.5952C75.5952 7.51704 75.6776 8.02729 75.8517 8.50484L77.295 7.97863ZM77.1315 6.98154V6.72951H75.5952V6.98154H77.1315ZM77.1315 6.72951C77.1315 6.27638 77.1984 5.90108 77.3157 5.59129L75.879 5.0473C75.6843 5.56163 75.5952 6.12647 75.5952 6.72951H77.1315ZM77.3166 5.589C77.4419 5.25479 77.6044 4.99208 77.7958 4.7864L76.6712 3.73987C76.3265 4.11028 76.0649 4.55167 75.8782 5.04959L77.3166 5.589ZM77.7958 4.7864C77.9964 4.57084 78.2147 4.41668 78.4522 4.31332L77.839 2.90475C77.3964 3.09743 77.0066 3.37934 76.6712 3.73987L77.7958 4.7864ZM78.4522 4.31332C78.6974 4.20659 78.9452 4.15512 79.2018 4.15512V2.61889C78.7302 2.61889 78.2739 2.71544 77.839 2.90475L78.4522 4.31332ZM79.2018 4.15512C79.5791 4.15512 79.861 4.22022 80.0717 4.32054L80.7322 2.93354C80.2707 2.7138 79.7526 2.61889 79.2018 2.61889V4.15512ZM80.0749 4.32204C80.3066 4.43108 80.4841 4.57676 80.6216 4.76001L81.8506 3.83827C81.5559 3.44543 81.1774 3.14304 80.729 2.93203L80.0749 4.32204ZM80.6247 4.76413C80.7732 4.9594 80.8928 5.20236 80.9742 5.50616L82.4581 5.10843C82.3315 4.6361 82.131 4.20696 81.8475 3.83415L80.6247 4.76413ZM80.9747 5.50809C81.0587 5.81796 81.1041 6.16955 81.1041 6.56748H82.6403C82.6403 6.05328 82.5817 5.56474 82.4575 5.10649L80.9747 5.50809ZM81.1041 6.56748V7.06556H82.6403V6.56748H81.1041ZM81.8722 6.29744H77.0234V7.83367H81.8722V6.29744ZM77.7916 7.06556V6.15942H76.2553V7.06556H77.7916ZM77.0234 6.92754H80.762V5.3913H77.0234V6.92754ZM81.5301 6.15942V6.07541H79.9939V6.15942H81.5301ZM81.5289 6.0328C81.5085 5.66466 81.4315 5.30649 81.2994 4.96096L79.8645 5.5096C79.9404 5.70815 79.9835 5.91007 79.9951 6.11802L81.5289 6.0328ZM81.3029 4.97023C81.156 4.57066 80.9144 4.22951 80.5817 3.96338L79.6221 5.16298C79.7295 5.2489 79.8079 5.35582 79.861 5.50033L81.3029 4.97023ZM80.5817 3.96338C80.1847 3.64575 79.6956 3.53102 79.2018 3.53102V5.06726C79.468 5.06726 79.579 5.12856 79.6221 5.16298L80.5817 3.96338ZM79.2018 3.53102C78.8359 3.53102 78.4834 3.61046 78.157 3.77674L78.8543 5.14559C78.952 5.09583 79.0636 5.06726 79.2018 5.06726V3.53102ZM78.1674 3.77156C77.8337 3.93526 77.558 4.17687 77.3394 4.47603L78.5797 5.38244C78.6652 5.26554 78.7536 5.1951 78.844 5.15077L78.1674 3.77156ZM77.3394 4.47603C77.1231 4.77201 76.9696 5.11367 76.8659 5.48424L78.3452 5.89846C78.4095 5.66894 78.492 5.50253 78.5797 5.38244L77.3394 4.47603ZM76.8659 5.48424C76.7588 5.86645 76.7114 6.2846 76.7114 6.72951H78.2476C78.2476 6.39029 78.2842 6.11634 78.3452 5.89846L76.8659 5.48424ZM76.7114 6.72951V6.98154H78.2476V6.72951H76.7114ZM76.7114 6.98154C76.7114 7.36015 76.7631 7.72711 76.8716 8.07833L78.3394 7.62503C78.2799 7.43216 78.2476 7.21903 78.2476 6.98154H76.7114ZM76.8757 8.09131C76.9903 8.44027 77.1587 8.7596 77.3849 9.04105L78.5822 8.07851C78.4804 7.9519 78.3967 7.79916 78.3353 7.61205L76.8757 8.09131ZM77.3906 9.04808C77.6278 9.336 77.9163 9.56475 78.2508 9.7292L78.9285 8.35051C78.791 8.28293 78.6755 8.19163 78.5765 8.07149L77.3906 9.04808ZM78.2554 9.73143C78.6134 9.90447 79.0023 9.982 79.4058 9.982V8.44577C79.2012 8.44577 79.046 8.40728 78.9239 8.34828L78.2554 9.73143ZM79.4058 9.982C79.9019 9.982 80.3759 9.88034 80.7914 9.63591L80.0125 8.31178C79.8839 8.3874 79.6938 8.44577 79.4058 8.44577V9.982ZM80.7914 9.63591C81.1551 9.42197 81.4669 9.13901 81.7272 8.79698L80.5049 7.86651C80.3571 8.06057 80.1929 8.20568 80.0125 8.31178L80.7914 9.63591ZM80.6382 8.93311L81.3103 9.46719L82.266 8.26446L81.5939 7.73038L80.6382 8.93311ZM81.1472 8.44255C81.0486 8.59181 80.9166 8.7442 80.7438 8.89782L81.7644 10.046C82.0236 9.81558 82.2476 9.56391 82.4291 9.28911L81.1472 8.44255ZM80.7438 8.89782C80.6083 9.01826 80.4266 9.12952 80.1833 9.22191L80.7286 10.6581C81.1175 10.5104 81.4678 10.3096 81.7644 10.046L80.7438 8.89782ZM80.1802 9.22307C79.977 9.30124 79.7048 9.3519 79.3458 9.3519V10.8881C79.8429 10.8881 80.3108 10.8188 80.7317 10.6569L80.1802 9.22307Z" fill="white"/>
</svg>
